solid lkbracket
facet normal 0.193054090961553 -0.981188115481944 0.0
  outer loop
    vertex 6.89892347793744 2.2075747289143 0.0984251968503937
    vertex 6.70422487786435 2.16926672186089 0.0
    vertex 6.89892347793744 2.2075747289143 0.0
  endloop
endfacet
facet normal 0.193054090961553 -0.981188115481944 0.0
  outer loop
    vertex 6.70422487786435 2.16926672186089 0.0
    vertex 6.89892347793744 2.2075747289143 0.0984251968503937
    vertex 6.70422487786435 2.16926672186089 0.0984251968503937
  endloop
endfacet
facet normal 0.156822382404168 -0.987626822426913 0.0
  outer loop
    vertex 6.67726072879069 1.65223423098663 0.0984251968503937
    vertex 6.45572239371435 1.61705680494716 0.0
    vertex 6.67726072879069 1.65223423098663 0.0
  endloop
endfacet
facet normal 0.156822382404168 -0.987626822426913 0.0
  outer loop
    vertex 6.45572239371435 1.61705680494716 0.0
    vertex 6.67726072879069 1.65223423098663 0.0984251968503937
    vertex 6.45572239371435 1.61705680494716 0.0984251968503937
  endloop
endfacet
facet normal 0.99882570352872 -0.0484480543505854 0.0
  outer loop
    vertex 6.45572239371435 1.61705680494716 0.0
    vertex 6.44918765490147 1.48233384899693 0.0984251968503937
    vertex 6.44918765490147 1.48233384899693 0.0
  endloop
endfacet
facet normal 0.99882570352872 -0.0484480543505854 0.0
  outer loop
    vertex 6.44918765490147 1.48233384899693 0.0984251968503937
    vertex 6.45572239371435 1.61705680494716 0.0
    vertex 6.45572239371435 1.61705680494716 0.0984251968503937
  endloop
endfacet
facet normal 0.196026644755329 -0.980598569520662 0.0
  outer loop
    vertex 6.44918765490147 1.48233384899693 0.0984251968503937
    vertex 6.16866918304317 1.4262567787875 0.0
    vertex 6.44918765490147 1.48233384899693 0.0
  endloop
endfacet
facet normal 0.196026644755329 -0.980598569520662 0.0
  outer loop
    vertex 6.16866918304317 1.4262567787875 0.0
    vertex 6.44918765490147 1.48233384899693 0.0984251968503937
    vertex 6.16866918304317 1.4262567787875 0.0984251968503937
  endloop
endfacet
facet normal 1.0 0.0 0.0
  outer loop
    vertex 6.16866918304317 1.4262567787875 0.0
    vertex 6.16866918304317 1.13 0.0984251968503937
    vertex 6.16866918304317 1.13 0.0
  endloop
endfacet
facet normal 1.0 0.0 0.0
  outer loop
    vertex 6.16866918304317 1.13 0.0984251968503937
    vertex 6.16866918304317 1.4262567787875 0.0
    vertex 6.16866918304317 1.4262567787875 0.0984251968503937
  endloop
endfacet
facet normal -0.981188115481944 -0.193054090961553 0.0
  outer loop
    vertex 2.29708593758548 1.18887128692892 0.0984251968503937
    vertex 2.30866918304317 1.13 0.0
    vertex 2.30866918304317 1.13 0.0984251968503937
  endloop
endfacet
facet normal -0.981188115481944 -0.193054090961553 0.0
  outer loop
    vertex 2.30866918304317 1.13 0.0
    vertex 2.29708593758548 1.18887128692892 0.0984251968503937
    vertex 2.29708593758548 1.18887128692892 0.0
  endloop
endfacet
facet normal 0.193054090961552 -0.981188115481944 0.0
  outer loop
    vertex 2.0746047499809 1.25836381630864 0.0984251968503937
    vertex 1.90467597013435 1.22492940592 0.0
    vertex 2.0746047499809 1.25836381630864 0.0
  endloop
endfacet
facet normal 0.193054090961552 -0.981188115481944 0.0
  outer loop
    vertex 1.90467597013435 1.22492940592 0.0
    vertex 2.0746047499809 1.25836381630864 0.0984251968503937
    vertex 1.90467597013435 1.22492940592 0.0984251968503937
  endloop
endfacet
facet normal 1.0 0.0 0.0
  outer loop
    vertex 2.6 1.13 0.0984251968503937
    vertex 2.6 0.97251968503937 0.177165354330709
    vertex 2.6 0.97251968503937 0.0984251968503937
  endloop
endfacet
facet normal 1.0 0.0 0.0
  outer loop
    vertex 2.6 0.97251968503937 0.177165354330709
    vertex 2.6 1.13 0.0984251968503937
    vertex 2.6 1.28748031496063 0.177165354330709
  endloop
endfacet
facet normal 1.0 0.0 0.0
  outer loop
    vertex 2.6 1.28748031496063 0.177165354330709
    vertex 2.6 1.13 0.0984251968503937
    vertex 2.6 1.28748031496063 0.0984251968503937
  endloop
endfacet
facet normal 0.0 1.0 0.0
  outer loop
    vertex 2.4 1.28748031496063 0.177165354330709
    vertex 2.6 1.28748031496063 0.0984251968503937
    vertex 2.4 1.28748031496063 0.0984251968503937
  endloop
endfacet
facet normal 0.0 1.0 0.0
  outer loop
    vertex 2.6 1.28748031496063 0.0984251968503937
    vertex 2.4 1.28748031496063 0.177165354330709
    vertex 2.6 1.28748031496063 0.177165354330709
  endloop
endfacet
facet normal -1.0 0.0 0.0
  outer loop
    vertex 2.4 1.28748031496063 0.177165354330709
    vertex 2.4 0.97251968503937 0.0984251968503937
    vertex 2.4 0.97251968503937 0.177165354330709
  endloop
endfacet
facet normal -1.0 0.0 0.0
  outer loop
    vertex 2.4 0.97251968503937 0.0984251968503937
    vertex 2.4 1.28748031496063 0.177165354330709
    vertex 2.4 1.13 0.0984251968503937
  endloop
endfacet
facet normal -1.0 0.0 0.0
  outer loop
    vertex 2.4 1.13 0.0984251968503937
    vertex 2.4 1.28748031496063 0.177165354330709
    vertex 2.4 1.28748031496063 0.0984251968503937
  endloop
endfacet
facet normal 1.0 0.0 0.0
  outer loop
    vertex 3.6 1.13 0.0984251968503937
    vertex 3.6 0.97251968503937 0.177165354330709
    vertex 3.6 0.97251968503937 0.0984251968503937
  endloop
endfacet
facet normal 1.0 0.0 0.0
  outer loop
    vertex 3.6 0.97251968503937 0.177165354330709
    vertex 3.6 1.13 0.0984251968503937
    vertex 3.6 1.28748031496063 0.177165354330709
  endloop
endfacet
facet normal 1.0 0.0 0.0
  outer loop
    vertex 3.6 1.28748031496063 0.177165354330709
    vertex 3.6 1.13 0.0984251968503937
    vertex 3.6 1.28748031496063 0.0984251968503937
  endloop
endfacet
facet normal 0.0 1.0 0.0
  outer loop
    vertex 3.3 1.28748031496063 0.177165354330709
    vertex 3.6 1.28748031496063 0.0984251968503937
    vertex 3.3 1.28748031496063 0.0984251968503937
  endloop
endfacet
facet normal 0.0 1.0 0.0
  outer loop
    vertex 3.6 1.28748031496063 0.0984251968503937
    vertex 3.3 1.28748031496063 0.177165354330709
    vertex 3.6 1.28748031496063 0.177165354330709
  endloop
endfacet
facet normal -1.0 0.0 0.0
  outer loop
    vertex 3.3 1.28748031496063 0.177165354330709
    vertex 3.3 0.97251968503937 0.0984251968503937
    vertex 3.3 0.97251968503937 0.177165354330709
  endloop
endfacet
facet normal -1.0 0.0 0.0
  outer loop
    vertex 3.3 0.97251968503937 0.0984251968503937
    vertex 3.3 1.28748031496063 0.177165354330709
    vertex 3.3 1.13 0.0984251968503937
  endloop
endfacet
facet normal -1.0 0.0 0.0
  outer loop
    vertex 3.3 1.13 0.0984251968503937
    vertex 3.3 1.28748031496063 0.177165354330709
    vertex 3.3 1.28748031496063 0.0984251968503937
  endloop
endfacet
facet normal 1.0 0.0 0.0
  outer loop
    vertex 5.1 1.13 0.0984251968503937
    vertex 5.1 0.97251968503937 0.177165354330709
    vertex 5.1 0.97251968503937 0.0984251968503937
  endloop
endfacet
facet normal 1.0 0.0 0.0
  outer loop
    vertex 5.1 0.97251968503937 0.177165354330709
    vertex 5.1 1.13 0.0984251968503937
    vertex 5.1 1.28748031496063 0.177165354330709
  endloop
endfacet
facet normal 1.0 0.0 0.0
  outer loop
    vertex 5.1 1.28748031496063 0.177165354330709
    vertex 5.1 1.13 0.0984251968503937
    vertex 5.1 1.28748031496063 0.0984251968503937
  endloop
endfacet
facet normal 0.0 1.0 0.0
  outer loop
    vertex 4.9 1.28748031496063 0.177165354330709
    vertex 5.1 1.28748031496063 0.0984251968503937
    vertex 4.9 1.28748031496063 0.0984251968503937
  endloop
endfacet
facet normal 0.0 1.0 0.0
  outer loop
    vertex 5.1 1.28748031496063 0.0984251968503937
    vertex 4.9 1.28748031496063 0.177165354330709
    vertex 5.1 1.28748031496063 0.177165354330709
  endloop
endfacet
facet normal -1.0 0.0 0.0
  outer loop
    vertex 4.9 1.28748031496063 0.177165354330709
    vertex 4.9 0.97251968503937 0.0984251968503937
    vertex 4.9 0.97251968503937 0.177165354330709
  endloop
endfacet
facet normal -1.0 0.0 0.0
  outer loop
    vertex 4.9 0.97251968503937 0.0984251968503937
    vertex 4.9 1.28748031496063 0.177165354330709
    vertex 4.9 1.13 0.0984251968503937
  endloop
endfacet
facet normal -1.0 0.0 0.0
  outer loop
    vertex 4.9 1.13 0.0984251968503937
    vertex 4.9 1.28748031496063 0.177165354330709
    vertex 4.9 1.28748031496063 0.0984251968503937
  endloop
endfacet
facet normal 1.0 0.0 0.0
  outer loop
    vertex 5.8 1.13 0.0984251968503941
    vertex 5.8 0.97251968503937 0.177165354330709
    vertex 5.8 0.97251968503937 0.0984251968503941
  endloop
endfacet
facet normal 1.0 0.0 0.0
  outer loop
    vertex 5.8 0.97251968503937 0.177165354330709
    vertex 5.8 1.13 0.0984251968503941
    vertex 5.8 1.28748031496063 0.177165354330709
  endloop
endfacet
facet normal 1.0 0.0 0.0
  outer loop
    vertex 5.8 1.28748031496063 0.177165354330709
    vertex 5.8 1.13 0.0984251968503941
    vertex 5.8 1.28748031496063 0.0984251968503941
  endloop
endfacet
facet normal 1.74255231626081e-059 1.0 -1.17716369432787e-044
  outer loop
    vertex 5.5 1.28748031496063 0.177165354330709
    vertex 5.8 1.28748031496063 0.0984251968503941
    vertex 5.5 1.28748031496063 0.0984251968503937
  endloop
endfacet
facet normal 1.74255231626081e-059 1.0 -1.17716369432787e-044
  outer loop
    vertex 5.8 1.28748031496063 0.0984251968503941
    vertex 5.5 1.28748031496063 0.177165354330709
    vertex 5.8 1.28748031496063 0.177165354330709
  endloop
endfacet
facet normal -1.0 0.0 0.0
  outer loop
    vertex 5.5 1.28748031496063 0.177165354330709
    vertex 5.5 0.97251968503937 0.0984251968503937
    vertex 5.5 0.97251968503937 0.177165354330709
  endloop
endfacet
facet normal -1.0 0.0 0.0
  outer loop
    vertex 5.5 0.97251968503937 0.0984251968503937
    vertex 5.5 1.28748031496063 0.177165354330709
    vertex 5.5 1.13 0.0984251968503937
  endloop
endfacet
facet normal -1.0 0.0 0.0
  outer loop
    vertex 5.5 1.13 0.0984251968503937
    vertex 5.5 1.28748031496063 0.177165354330709
    vertex 5.5 1.28748031496063 0.0984251968503937
  endloop
endfacet
facet normal 0.0 -1.0 0.0
  outer loop
    vertex 6.16866918304317 1.13 0.0984251968503937
    vertex 5.8 1.13 4.37665504548275e-016
    vertex 6.16866918304317 1.13 0.0
  endloop
endfacet
facet normal 0.0 -1.0 0.0
  outer loop
    vertex 5.8 1.13 0.0984251968503941
    vertex 5.5 1.13 0.0984251968503937
    vertex 6.16866918304317 1.13 0.0984251968503937
  endloop
endfacet
facet normal 0.0 -1.0 0.0
  outer loop
    vertex 2.4 1.13 8.94455397612948e-020
    vertex 2.30866918304317 1.13 0.0984251968503937
    vertex 2.30866918304317 1.13 0.0
  endloop
endfacet
facet normal 0.0 -1.0 0.0
  outer loop
    vertex 2.30866918304317 1.13 0.0984251968503937
    vertex 2.4 1.13 8.94455397612948e-020
    vertex 2.6 1.13 5.70634163584014e-019
  endloop
endfacet
facet normal 0.0 -1.0 0.0
  outer loop
    vertex 2.30866918304317 1.13 0.0984251968503937
    vertex 2.6 1.13 5.70634163584014e-019
    vertex 3.3 1.13 3.88346991559799e-018
  endloop
endfacet
facet normal 0.0 -1.0 0.0
  outer loop
    vertex 2.30866918304317 1.13 0.0984251968503937
    vertex 3.3 1.13 3.88346991559799e-018
    vertex 3.6 1.13 1.01173983355645e-017
  endloop
endfacet
facet normal 0.0 -1.0 0.0
  outer loop
    vertex 2.30866918304317 1.13 0.0984251968503937
    vertex 3.6 1.13 1.01173983355645e-017
    vertex 4.9 1.13 4.06054370423231e-017
  endloop
endfacet
facet normal 0.0 -1.0 0.0
  outer loop
    vertex 2.30866918304317 1.13 0.0984251968503937
    vertex 4.9 1.13 4.06054370423231e-017
    vertex 5.1 1.13 8.7478763429629e-017
  endloop
endfacet
facet normal 0.0 -1.0 0.0
  outer loop
    vertex 2.30866918304317 1.13 0.0984251968503937
    vertex 5.1 1.13 8.7478763429629e-017
    vertex 5.5 1.13 2.00029084239189e-016
  endloop
endfacet
facet normal 0.0 -1.0 0.0
  outer loop
    vertex 2.30866918304317 1.13 0.0984251968503937
    vertex 5.5 1.13 2.00029084239189e-016
    vertex 5.8 1.13 4.37665504548275e-016
  endloop
endfacet
facet normal 0.0 -1.0 0.0
  outer loop
    vertex 2.30866918304317 1.13 0.0984251968503937
    vertex 5.8 1.13 4.37665504548275e-016
    vertex 6.16866918304317 1.13 0.0984251968503937
  endloop
endfacet
facet normal 0.0 -1.0 0.0
  outer loop
    vertex 2.30866918304317 1.13 0.0984251968503937
    vertex 6.16866918304317 1.13 0.0984251968503937
    vertex 5.5 1.13 0.0984251968503937
  endloop
endfacet
facet normal 0.0 -1.0 0.0
  outer loop
    vertex 2.30866918304317 1.13 0.0984251968503937
    vertex 5.5 1.13 0.0984251968503937
    vertex 5.1 1.13 0.0984251968503937
  endloop
endfacet
facet normal 0.0 -1.0 0.0
  outer loop
    vertex 2.30866918304317 1.13 0.0984251968503937
    vertex 5.1 1.13 0.0984251968503937
    vertex 4.9 1.13 0.0984251968503937
  endloop
endfacet
facet normal 0.0 -1.0 0.0
  outer loop
    vertex 2.30866918304317 1.13 0.0984251968503937
    vertex 4.9 1.13 0.0984251968503937
    vertex 3.6 1.13 0.0984251968503937
  endloop
endfacet
facet normal 0.0 -1.0 0.0
  outer loop
    vertex 2.30866918304317 1.13 0.0984251968503937
    vertex 3.6 1.13 0.0984251968503937
    vertex 3.3 1.13 0.0984251968503937
  endloop
endfacet
facet normal 0.0 -1.0 0.0
  outer loop
    vertex 2.30866918304317 1.13 0.0984251968503937
    vertex 3.3 1.13 0.0984251968503937
    vertex 2.6 1.13 0.0984251968503937
  endloop
endfacet
facet normal 0.0 -1.0 0.0
  outer loop
    vertex 2.30866918304317 1.13 0.0984251968503937
    vertex 2.6 1.13 0.0984251968503937
    vertex 2.4 1.13 0.0984251968503937
  endloop
endfacet
facet normal 0.0 -1.0 0.0
  outer loop
    vertex 2.6 0.97251968503937 0.177165354330709
    vertex 2.4 0.97251968503937 0.0984251968503937
    vertex 2.6 0.97251968503937 0.0984251968503937
  endloop
endfacet
facet normal 0.0 -1.0 0.0
  outer loop
    vertex 2.4 0.97251968503937 0.0984251968503937
    vertex 2.6 0.97251968503937 0.177165354330709
    vertex 2.4 0.97251968503937 0.177165354330709
  endloop
endfacet
facet normal 0.0 -1.0 0.0
  outer loop
    vertex 3.6 0.97251968503937 0.177165354330709
    vertex 3.3 0.97251968503937 0.0984251968503937
    vertex 3.6 0.97251968503937 0.0984251968503937
  endloop
endfacet
facet normal 0.0 -1.0 0.0
  outer loop
    vertex 3.3 0.97251968503937 0.0984251968503937
    vertex 3.6 0.97251968503937 0.177165354330709
    vertex 3.3 0.97251968503937 0.177165354330709
  endloop
endfacet
facet normal 0.0 -1.0 0.0
  outer loop
    vertex 5.1 0.97251968503937 0.177165354330709
    vertex 4.9 0.97251968503937 0.0984251968503937
    vertex 5.1 0.97251968503937 0.0984251968503937
  endloop
endfacet
facet normal 0.0 -1.0 0.0
  outer loop
    vertex 4.9 0.97251968503937 0.0984251968503937
    vertex 5.1 0.97251968503937 0.177165354330709
    vertex 4.9 0.97251968503937 0.177165354330709
  endloop
endfacet
facet normal 0.0 -1.0 0.0
  outer loop
    vertex 5.8 0.97251968503937 0.0984251968503941
    vertex 5.5 0.97251968503937 0.177165354330709
    vertex 5.5 0.97251968503937 0.0984251968503937
  endloop
endfacet
facet normal 0.0 -1.0 0.0
  outer loop
    vertex 5.5 0.97251968503937 0.177165354330709
    vertex 5.8 0.97251968503937 0.0984251968503941
    vertex 5.8 0.97251968503937 0.177165354330709
  endloop
endfacet
facet normal -1.0 -6.83262796933981e-037 -1.2029715595568e-018
  outer loop
    vertex 2.4 1.13 8.94455397612948e-020
    vertex 2.4 0.97251968503937 -0.078740157480315
    vertex 2.4 0.97251968503937 8.94455397612948e-020
  endloop
endfacet
facet normal -1.0 -6.83262796933981e-037 -1.2029715595568e-018
  outer loop
    vertex 2.4 0.97251968503937 -0.078740157480315
    vertex 2.4 1.13 8.94455397612948e-020
    vertex 2.4 1.28748031496063 -0.078740157480315
  endloop
endfacet
facet normal -1.0 -6.83262796933981e-037 -1.2029715595568e-018
  outer loop
    vertex 2.4 1.28748031496063 -0.078740157480315
    vertex 2.4 1.13 8.94455397612948e-020
    vertex 2.4 1.28748031496063 0.0
  endloop
endfacet
facet normal 0.0 1.0 -2.09575305812136e-018
  outer loop
    vertex 2.4 1.28748031496063 0.0
    vertex 2.6 1.28748031496063 -0.078740157480315
    vertex 2.4 1.28748031496063 -0.078740157480315
  endloop
endfacet
facet normal 0.0 1.0 -2.09575305812136e-018
  outer loop
    vertex 2.6 1.28748031496063 -0.078740157480315
    vertex 2.4 1.28748031496063 0.0
    vertex 2.6 1.28748031496063 0.0
  endloop
endfacet
facet normal 1.0 4.35899985261436e-036 1.2029715595568e-018
  outer loop
    vertex 2.6 1.28748031496063 -0.078740157480315
    vertex 2.6 0.97251968503937 5.70634163584014e-019
    vertex 2.6 0.97251968503937 -0.078740157480315
  endloop
endfacet
facet normal 1.0 4.35899985261436e-036 1.2029715595568e-018
  outer loop
    vertex 2.6 0.97251968503937 5.70634163584014e-019
    vertex 2.6 1.28748031496063 -0.078740157480315
    vertex 2.6 1.13 5.70634163584014e-019
  endloop
endfacet
facet normal 1.0 4.35899985261436e-036 1.2029715595568e-018
  outer loop
    vertex 2.6 1.13 5.70634163584014e-019
    vertex 2.6 1.28748031496063 -0.078740157480315
    vertex 2.6 1.28748031496063 0.0
  endloop
endfacet
facet normal -1.0 -2.56214810943025e-034 -1.03898806999442e-017
  outer loop
    vertex 3.3 1.13 3.88346991559799e-018
    vertex 3.3 0.97251968503937 -0.078740157480315
    vertex 3.3 0.97251968503937 3.88346991559799e-018
  endloop
endfacet
facet normal -1.0 -2.56214810943025e-034 -1.03898806999442e-017
  outer loop
    vertex 3.3 0.97251968503937 -0.078740157480315
    vertex 3.3 1.13 3.88346991559799e-018
    vertex 3.3 1.28748031496063 -0.078740157480315
  endloop
endfacet
facet normal -1.0 -2.56214810943025e-034 -1.03898806999442e-017
  outer loop
    vertex 3.3 1.28748031496063 -0.078740157480315
    vertex 3.3 1.13 3.88346991559799e-018
    vertex 3.3 1.28748031496063 0.0
  endloop
endfacet
facet normal -7.40148683083438e-016 1.0 -4.44527566974411e-017
  outer loop
    vertex 3.3 1.28748031496063 0.0
    vertex 3.6 1.28748031496063 -0.078740157480315
    vertex 3.3 1.28748031496063 -0.078740157480315
  endloop
endfacet
facet normal -7.40148683083438e-016 1.0 -4.44527566974411e-017
  outer loop
    vertex 3.6 1.28748031496063 -0.078740157480315
    vertex 3.3 1.28748031496063 0.0
    vertex 3.6 1.28748031496063 0.0
  endloop
endfacet
facet normal 1.0 6.67502866797095e-034 1.03898806999442e-017
  outer loop
    vertex 3.6 1.28748031496063 -0.078740157480315
    vertex 3.6 0.97251968503937 1.01173983355645e-017
    vertex 3.6 0.97251968503937 -0.0787401574803149
  endloop
endfacet
facet normal 1.0 6.67502866797095e-034 1.03898806999442e-017
  outer loop
    vertex 3.6 0.97251968503937 1.01173983355645e-017
    vertex 3.6 1.28748031496063 -0.078740157480315
    vertex 3.6 1.13 1.01173983355645e-017
  endloop
endfacet
facet normal 1.0 6.67502866797095e-034 1.03898806999442e-017
  outer loop
    vertex 3.6 1.13 1.01173983355645e-017
    vertex 3.6 1.28748031496063 -0.078740157480315
    vertex 3.6 1.28748031496063 0.0
  endloop
endfacet
facet normal -1.0 -3.02150764693963e-032 -1.17183315968265e-016
  outer loop
    vertex 4.9 1.13 4.06054370423231e-017
    vertex 4.9 0.97251968503937 -0.0787401574803149
    vertex 4.9 0.97251968503937 4.06054370423231e-017
  endloop
endfacet
facet normal -1.0 -3.02150764693963e-032 -1.17183315968265e-016
  outer loop
    vertex 4.9 0.97251968503937 -0.0787401574803149
    vertex 4.9 1.13 4.06054370423231e-017
    vertex 4.9 1.28748031496063 -0.078740157480315
  endloop
endfacet
facet normal -1.0 -3.02150764693963e-032 -1.17183315968265e-016
  outer loop
    vertex 4.9 1.28748031496063 -0.078740157480315
    vertex 4.9 1.13 4.06054370423231e-017
    vertex 4.9 1.28748031496063 0.0
  endloop
endfacet
facet normal 0.0 1.0 -4.06667336498449e-016
  outer loop
    vertex 4.9 1.28748031496063 0.0
    vertex 5.1 1.28748031496063 -0.078740157480315
    vertex 4.9 1.28748031496063 -0.078740157480315
  endloop
endfacet
facet normal 0.0 1.0 -4.06667336498449e-016
  outer loop
    vertex 5.1 1.28748031496063 -0.078740157480315
    vertex 4.9 1.28748031496063 0.0
    vertex 5.1 1.28748031496063 0.0
  endloop
endfacet
facet normal 1.0 6.50941775043446e-032 1.17183315968265e-016
  outer loop
    vertex 5.1 1.28748031496063 -0.078740157480315
    vertex 5.1 0.97251968503937 8.7478763429629e-017
    vertex 5.1 0.97251968503937 -0.0787401574803149
  endloop
endfacet
facet normal 1.0 6.50941775043446e-032 1.17183315968265e-016
  outer loop
    vertex 5.1 0.97251968503937 8.7478763429629e-017
    vertex 5.1 1.28748031496063 -0.078740157480315
    vertex 5.1 1.13 8.7478763429629e-017
  endloop
endfacet
facet normal 1.0 6.50941775043446e-032 1.17183315968265e-016
  outer loop
    vertex 5.1 1.13 8.7478763429629e-017
    vertex 5.1 1.28748031496063 -0.078740157480315
    vertex 5.1 1.28748031496063 0.0
  endloop
endfacet
facet normal -1.0 -9.6633358692132e-031 -7.60781954305373e-016
  outer loop
    vertex 5.5 1.13 2.00029084239189e-016
    vertex 5.5 0.97251968503937 -0.0787401574803148
    vertex 5.5 0.97251968503937 2.00029084239189e-016
  endloop
endfacet
facet normal -1.0 -9.6633358692132e-031 -7.60781954305373e-016
  outer loop
    vertex 5.5 0.97251968503937 -0.0787401574803148
    vertex 5.5 1.13 2.00029084239189e-016
    vertex 5.5 1.28748031496063 -0.078740157480315
  endloop
endfacet
facet normal -1.0 -9.6633358692132e-031 -7.60781954305373e-016
  outer loop
    vertex 5.5 1.28748031496063 -0.078740157480315
    vertex 5.5 1.13 2.00029084239189e-016
    vertex 5.5 1.28748031496063 0.0
  endloop
endfacet
facet normal -7.40148683083437e-016 1.0 -1.32988633092981e-015
  outer loop
    vertex 5.5 1.28748031496063 0.0
    vertex 5.8 1.28748031496063 -0.0787401574803147
    vertex 5.5 1.28748031496063 -0.078740157480315
  endloop
endfacet
facet normal -7.40148683083437e-016 1.0 -1.32988633092981e-015
  outer loop
    vertex 5.8 1.28748031496063 -0.0787401574803147
    vertex 5.5 1.28748031496063 0.0
    vertex 5.8 1.28748031496063 2.18832752274137e-016
  endloop
endfacet
facet normal 1.0 1.05717345677625e-030 7.60781954305373e-016
  outer loop
    vertex 5.8 1.28748031496063 -0.0787401574803147
    vertex 5.8 0.97251968503937 4.37665504548275e-016
    vertex 5.8 0.97251968503937 -0.0787401574803145
  endloop
endfacet
facet normal 1.0 1.05717345677625e-030 7.60781954305373e-016
  outer loop
    vertex 5.8 0.97251968503937 4.37665504548275e-016
    vertex 5.8 1.28748031496063 -0.0787401574803147
    vertex 5.8 1.13 4.37665504548275e-016
  endloop
endfacet
facet normal 1.0 1.05717345677625e-030 7.60781954305373e-016
  outer loop
    vertex 5.8 1.13 4.37665504548275e-016
    vertex 5.8 1.28748031496063 -0.0787401574803147
    vertex 5.8 1.28748031496063 2.18832752274137e-016
  endloop
endfacet
facet normal 0.0 -1.0 0.0
  outer loop
    vertex 2.6 0.97251968503937 5.70634163584014e-019
    vertex 2.4 0.97251968503937 -0.078740157480315
    vertex 2.6 0.97251968503937 -0.078740157480315
  endloop
endfacet
facet normal 0.0 -1.0 0.0
  outer loop
    vertex 2.4 0.97251968503937 -0.078740157480315
    vertex 2.6 0.97251968503937 5.70634163584014e-019
    vertex 2.4 0.97251968503937 8.94455397612948e-020
  endloop
endfacet
facet normal 0.0 -1.0 0.0
  outer loop
    vertex 3.6 0.97251968503937 -0.0787401574803149
    vertex 3.3 0.97251968503937 3.88346991559799e-018
    vertex 3.3 0.97251968503937 -0.078740157480315
  endloop
endfacet
facet normal 0.0 -1.0 0.0
  outer loop
    vertex 3.3 0.97251968503937 3.88346991559799e-018
    vertex 3.6 0.97251968503937 -0.0787401574803149
    vertex 3.6 0.97251968503937 1.01173983355645e-017
  endloop
endfacet
facet normal 0.0 -1.0 0.0
  outer loop
    vertex 5.1 0.97251968503937 -0.0787401574803149
    vertex 4.9 0.97251968503937 4.06054370423231e-017
    vertex 4.9 0.97251968503937 -0.0787401574803149
  endloop
endfacet
facet normal 0.0 -1.0 0.0
  outer loop
    vertex 4.9 0.97251968503937 4.06054370423231e-017
    vertex 5.1 0.97251968503937 -0.0787401574803149
    vertex 5.1 0.97251968503937 8.7478763429629e-017
  endloop
endfacet
facet normal 0.0 -1.0 0.0
  outer loop
    vertex 5.8 0.97251968503937 -0.0787401574803145
    vertex 5.5 0.97251968503937 2.00029084239189e-016
    vertex 5.5 0.97251968503937 -0.0787401574803148
  endloop
endfacet
facet normal 0.0 -1.0 0.0
  outer loop
    vertex 5.5 0.97251968503937 2.00029084239189e-016
    vertex 5.8 0.97251968503937 -0.0787401574803145
    vertex 5.8 0.97251968503937 4.37665504548275e-016
  endloop
endfacet
facet normal -0.998642865229168 0.0520809727911928 -1.2169088304674e-017
  outer loop
    vertex 6.54653055044882 2.16926672186089 -1.91639185900379e-018
    vertex 6.51956640137517 1.65223423098663 -0.078740157480315
    vertex 6.51956640137517 1.65223423098663 -1.91639185900379e-018
  endloop
endfacet
facet normal -0.998642865229168 0.0520809727911928 -1.2169088304674e-017
  outer loop
    vertex 6.51956640137517 1.65223423098663 -0.078740157480315
    vertex 6.54653055044882 2.16926672186089 -1.91639185900379e-018
    vertex 6.54653055044882 2.16926672186089 -0.078740157480315
  endloop
endfacet
facet normal -0.998642865229168 0.0520809727911928 0.0
  outer loop
    vertex 6.54653055044882 2.16926672186089 0.177165354330709
    vertex 6.51956640137517 1.65223423098663 0.0984251968503937
    vertex 6.51956640137517 1.65223423098663 0.177165354330709
  endloop
endfacet
facet normal -0.998642865229168 0.0520809727911928 0.0
  outer loop
    vertex 6.51956640137517 1.65223423098663 0.0984251968503937
    vertex 6.54653055044882 2.16926672186089 0.177165354330709
    vertex 6.54653055044882 2.16926672186089 0.0984251968503937
  endloop
endfacet
facet normal 0.998642865229168 -0.0520809727911928 0.0
  outer loop
    vertex 6.70422487786435 2.16926672186089 0.0
    vertex 6.67726072879069 1.65223423098663 0.0984251968503937
    vertex 6.67726072879069 1.65223423098663 0.0
  endloop
endfacet
facet normal 0.998642865229168 -0.0520809727911928 0.0
  outer loop
    vertex 6.67726072879069 1.65223423098663 0.0984251968503937
    vertex 6.70422487786435 2.16926672186089 0.0
    vertex 6.70422487786435 2.16926672186089 0.0984251968503937
  endloop
endfacet
facet normal 0.998642865229168 -0.0520809727911928 0.0
  outer loop
    vertex 7.0187580637633 2.15286326586367 -0.078740157480315
    vertex 6.99179391468965 1.63583077498941 0.0
    vertex 6.99179391468965 1.63583077498941 -0.078740157480315
  endloop
endfacet
facet normal 0.998642865229168 -0.0520809727911928 0.0
  outer loop
    vertex 6.99179391468965 1.63583077498941 0.0
    vertex 7.0187580637633 2.15286326586367 -0.078740157480315
    vertex 7.0187580637633 2.15286326586367 0.0
  endloop
endfacet
facet normal 0.998642865229168 -0.0520809727911928 0.0
  outer loop
    vertex 7.0187580637633 2.15286326586367 0.0984251968503937
    vertex 6.99179391468965 1.63583077498941 0.177165354330709
    vertex 6.99179391468965 1.63583077498941 0.0984251968503937
  endloop
endfacet
facet normal 0.998642865229168 -0.0520809727911928 0.0
  outer loop
    vertex 6.99179391468965 1.63583077498941 0.177165354330709
    vertex 7.0187580637633 2.15286326586367 0.0984251968503937
    vertex 7.0187580637633 2.15286326586367 0.177165354330709
  endloop
endfacet
facet normal 0.0 1.0 0.0
  outer loop
    vertex 6.54653055044882 2.16926672186089 0.177165354330709
    vertex 6.70422487786435 2.16926672186089 0.0984251968503937
    vertex 6.54653055044882 2.16926672186089 0.0984251968503937
  endloop
endfacet
facet normal 0.0 1.0 0.0
  outer loop
    vertex 6.70422487786435 2.16926672186089 0.0984251968503937
    vertex 6.54653055044882 2.16926672186089 0.177165354330709
    vertex 6.70422487786435 2.16926672186089 0.177165354330709
  endloop
endfacet
facet normal 0.0520809727911931 0.998642865229168 0.0
  outer loop
    vertex 6.70422487786435 2.16926672186089 0.177165354330709
    vertex 7.0187580637633 2.15286326586367 0.0984251968503937
    vertex 6.70422487786435 2.16926672186089 0.0984251968503937
  endloop
endfacet
facet normal 0.0520809727911931 0.998642865229168 0.0
  outer loop
    vertex 7.0187580637633 2.15286326586367 0.0984251968503937
    vertex 6.70422487786435 2.16926672186089 0.177165354330709
    vertex 7.0187580637633 2.15286326586367 0.177165354330709
  endloop
endfacet
facet normal 7.70203302112696e-036 1.0 -6.33777956889352e-019
  outer loop
    vertex 6.54653055044882 2.16926672186089 -1.91639185900379e-018
    vertex 6.70422487786435 2.16926672186089 -0.078740157480315
    vertex 6.54653055044882 2.16926672186089 -0.078740157480315
  endloop
endfacet
facet normal 7.70203302112696e-036 1.0 -6.33777956889352e-019
  outer loop
    vertex 6.70422487786435 2.16926672186089 -0.078740157480315
    vertex 6.54653055044882 2.16926672186089 -1.91639185900379e-018
    vertex 6.70422487786435 2.16926672186089 0.0
  endloop
endfacet
facet normal 0.0520809727911928 0.998642865229169 0.0
  outer loop
    vertex 6.70422487786435 2.16926672186089 0.0
    vertex 7.0187580637633 2.15286326586367 -0.078740157480315
    vertex 6.70422487786435 2.16926672186089 -0.078740157480315
  endloop
endfacet
facet normal 0.0520809727911928 0.998642865229169 0.0
  outer loop
    vertex 7.0187580637633 2.15286326586367 -0.078740157480315
    vertex 6.70422487786435 2.16926672186089 0.0
    vertex 7.0187580637633 2.15286326586367 0.0
  endloop
endfacet
facet normal 0.0 -1.0 0.0
  outer loop
    vertex 6.67726072879069 1.65223423098663 0.177165354330709
    vertex 6.51956640137517 1.65223423098663 0.0984251968503937
    vertex 6.67726072879069 1.65223423098663 0.0984251968503937
  endloop
endfacet
facet normal 0.0 -1.0 0.0
  outer loop
    vertex 6.51956640137517 1.65223423098663 0.0984251968503937
    vertex 6.67726072879069 1.65223423098663 0.177165354330709
    vertex 6.51956640137517 1.65223423098663 0.177165354330709
  endloop
endfacet
facet normal -0.0520809727911931 -0.998642865229168 0.0
  outer loop
    vertex 6.99179391468965 1.63583077498941 0.177165354330709
    vertex 6.67726072879069 1.65223423098663 0.0984251968503937
    vertex 6.99179391468965 1.63583077498941 0.0984251968503937
  endloop
endfacet
facet normal -0.0520809727911931 -0.998642865229168 0.0
  outer loop
    vertex 6.67726072879069 1.65223423098663 0.0984251968503937
    vertex 6.99179391468965 1.63583077498941 0.177165354330709
    vertex 6.67726072879069 1.65223423098663 0.177165354330709
  endloop
endfacet
facet normal -7.70203302112696e-036 -1.0 6.33777956889352e-019
  outer loop
    vertex 6.67726072879069 1.65223423098663 0.0
    vertex 6.51956640137517 1.65223423098663 -0.078740157480315
    vertex 6.67726072879069 1.65223423098663 -0.078740157480315
  endloop
endfacet
facet normal -7.70203302112696e-036 -1.0 6.33777956889352e-019
  outer loop
    vertex 6.51956640137517 1.65223423098663 -0.078740157480315
    vertex 6.67726072879069 1.65223423098663 0.0
    vertex 6.51956640137517 1.65223423098663 -1.91639185900379e-018
  endloop
endfacet
facet normal -0.0520809727911928 -0.998642865229169 0.0
  outer loop
    vertex 6.99179391468965 1.63583077498941 0.0
    vertex 6.67726072879069 1.65223423098663 -0.078740157480315
    vertex 6.99179391468965 1.63583077498941 -0.078740157480315
  endloop
endfacet
facet normal -0.0520809727911928 -0.998642865229169 0.0
  outer loop
    vertex 6.67726072879069 1.65223423098663 -0.078740157480315
    vertex 6.99179391468965 1.63583077498941 0.0
    vertex 6.67726072879069 1.65223423098663 0.0
  endloop
endfacet
facet normal -0.193054090961552 0.981188115481944 0.0
  outer loop
    vertex 2.0746047499809 1.25836381630864 0.0
    vertex 2.22993574040532 1.28892603234182 -0.078740157480315
    vertex 2.0746047499809 1.25836381630864 -0.078740157480315
  endloop
endfacet
facet normal -0.193054090961552 0.981188115481944 0.0
  outer loop
    vertex 2.22993574040532 1.28892603234182 -0.078740157480315
    vertex 2.0746047499809 1.25836381630864 0.0
    vertex 2.22993574040532 1.28892603234182 0.0
  endloop
endfacet
facet normal 0.956323234224458 0.292311258220536 0.0
  outer loop
    vertex 2.22993574040532 1.28892603234182 -0.078740157480315
    vertex 2.26290058667639 1.18107849819765 0.0
    vertex 2.26290058667639 1.18107849819765 -0.078740157480315
  endloop
endfacet
facet normal 0.956323234224458 0.292311258220536 0.0
  outer loop
    vertex 2.26290058667639 1.18107849819765 0.0
    vertex 2.22993574040532 1.28892603234182 -0.078740157480315
    vertex 2.22993574040532 1.28892603234182 0.0
  endloop
endfacet
facet normal 0.956323234224458 0.292311258220535 -2.90565099017511e-031
  outer loop
    vertex 2.22993574040532 1.28892603234182 0.0984251968503937
    vertex 2.26290058667639 1.18107849819765 0.177165354330709
    vertex 2.26290058667639 1.18107849819765 0.0984251968503937
  endloop
endfacet
facet normal 0.956323234224458 0.292311258220535 -2.90565099017511e-031
  outer loop
    vertex 2.26290058667639 1.18107849819765 0.177165354330709
    vertex 2.22993574040532 1.28892603234182 0.0984251968503937
    vertex 2.22993574040532 1.28892603234182 0.177165354330709
  endloop
endfacet
facet normal -0.193054090961552 0.981188115481944 -1.71581315937092e-017
  outer loop
    vertex 2.0746047499809 1.25836381630864 0.177165354330709
    vertex 2.22993574040532 1.28892603234182 0.0984251968503937
    vertex 2.0746047499809 1.25836381630864 0.0984251968503937
  endloop
endfacet
facet normal -0.193054090961552 0.981188115481944 -1.71581315937092e-017
  outer loop
    vertex 2.22993574040532 1.28892603234182 0.0984251968503937
    vertex 2.0746047499809 1.25836381630864 0.177165354330709
    vertex 2.22993574040532 1.28892603234182 0.177165354330709
  endloop
endfacet
facet normal 0.222255411227823 -0.97498847797292 -1.47673290250224e-015
  outer loop
    vertex 2.29708593758548 1.18887128692892 0.0984251968503937
    vertex 2.26290058667639 1.18107849819765 0.0
    vertex 2.29708593758548 1.18887128692892 0.0
  endloop
endfacet
facet normal 0.222255411227823 -0.97498847797292 -1.47673290250224e-015
  outer loop
    vertex 2.26290058667639 1.18107849819765 0.0
    vertex 2.29708593758548 1.18887128692892 0.0984251968503937
    vertex 2.10895450738891 1.14598541768239 0.0
  endloop
endfacet
facet normal 0.222255411227823 -0.97498847797292 -1.47673290250224e-015
  outer loop
    vertex 2.10895450738891 1.14598541768239 0.0
    vertex 2.29708593758548 1.18887128692892 0.0984251968503937
    vertex 2.10895450738891 1.14598541768239 0.0984251968503937
  endloop
endfacet
facet normal 0.222255411227823 -0.97498847797292 -1.47673290250224e-015
  outer loop
    vertex 2.10895450738891 1.14598541768239 0.0984251968503937
    vertex 2.29708593758548 1.18887128692892 0.0984251968503937
    vertex 2.26290058667639 1.18107849819765 0.0984251968503937
  endloop
endfacet
facet normal -0.956323234224458 -0.292311258220535 -3.27147217915533e-016
  outer loop
    vertex 2.0746047499809 1.25836381630864 0.0984251968503937
    vertex 2.10895450738891 1.14598541768239 0.0
    vertex 2.10895450738891 1.14598541768239 0.0984251968503937
  endloop
endfacet
facet normal -0.956323234224458 -0.292311258220535 -3.27147217915533e-016
  outer loop
    vertex 2.10895450738891 1.14598541768239 0.0
    vertex 2.0746047499809 1.25836381630864 0.0984251968503937
    vertex 2.0746047499809 1.25836381630864 0.0
  endloop
endfacet
facet normal -0.956323234224458 -0.292311258220535 4.08934022394417e-016
  outer loop
    vertex 1.95835242325907 1.09995214867128 6.439905864479e-017
    vertex 1.92400266585107 1.21233054729753 -0.0787401574803149
    vertex 1.95835242325907 1.09995214867128 -0.0787401574803149
  endloop
endfacet
facet normal -0.956323234224458 -0.292311258220535 4.08934022394417e-016
  outer loop
    vertex 1.92400266585107 1.21233054729753 -0.0787401574803149
    vertex 1.95835242325907 1.09995214867128 6.439905864479e-017
    vertex 1.92400266585107 1.21233054729753 6.439905864479e-017
  endloop
endfacet
facet normal -0.292311258220535 0.956323234224458 0.0
  outer loop
    vertex 1.92400266585107 1.21233054729753 -0.0787401574803149
    vertex 2.0746047499809 1.25836381630864 0.0
    vertex 2.0746047499809 1.25836381630864 -0.078740157480315
  endloop
endfacet
facet normal -0.292311258220535 0.956323234224458 0.0
  outer loop
    vertex 2.0746047499809 1.25836381630864 0.0
    vertex 1.92400266585107 1.21233054729753 -0.0787401574803149
    vertex 1.92400266585107 1.21233054729753 6.439905864479e-017
  endloop
endfacet
facet normal -0.956323234224458 -0.292311258220535 0.0
  outer loop
    vertex 1.92400266585107 1.21233054729753 0.177165354330709
    vertex 1.95835242325907 1.09995214867128 0.0984251968503937
    vertex 1.95835242325907 1.09995214867128 0.177165354330709
  endloop
endfacet
facet normal -0.956323234224458 -0.292311258220535 0.0
  outer loop
    vertex 1.95835242325907 1.09995214867128 0.0984251968503937
    vertex 1.92400266585107 1.21233054729753 0.177165354330709
    vertex 1.92400266585107 1.21233054729753 0.0984251968503937
  endloop
endfacet
facet normal -0.292311258220535 0.956323234224458 -2.04467011197202e-017
  outer loop
    vertex 1.92400266585107 1.21233054729753 0.177165354330709
    vertex 2.0746047499809 1.25836381630864 0.0984251968503937
    vertex 1.92400266585107 1.21233054729753 0.0984251968503937
  endloop
endfacet
facet normal -0.292311258220535 0.956323234224458 -2.04467011197202e-017
  outer loop
    vertex 2.0746047499809 1.25836381630864 0.0984251968503937
    vertex 1.92400266585107 1.21233054729753 0.177165354330709
    vertex 2.0746047499809 1.25836381630864 0.177165354330709
  endloop
endfacet
facet normal 0.222255411227824 -0.97498847797292 1.38102715250941e-015
  outer loop
    vertex 2.29790143883825 1.02753700560348 2.17484590946363e-016
    vertex 2.14395535955077 0.992443925088229 -0.0787401574803147
    vertex 2.29790143883825 1.02753700560348 -0.0787401574803147
  endloop
endfacet
facet normal 0.222255411227824 -0.97498847797292 1.38102715250941e-015
  outer loop
    vertex 2.14395535955077 0.992443925088229 -0.0787401574803147
    vertex 2.29790143883825 1.02753700560348 2.17484590946363e-016
    vertex 2.14395535955077 0.992443925088229 2.17484590946363e-016
  endloop
endfacet
facet normal 0.97498847797292 0.222255411227824 0.0
  outer loop
    vertex 2.26290058667639 1.18107849819765 -0.078740157480315
    vertex 2.29790143883825 1.02753700560348 2.17484590946363e-016
    vertex 2.29790143883825 1.02753700560348 -0.0787401574803147
  endloop
endfacet
facet normal 0.97498847797292 0.222255411227824 0.0
  outer loop
    vertex 2.29790143883825 1.02753700560348 2.17484590946363e-016
    vertex 2.26290058667639 1.18107849819765 -0.078740157480315
    vertex 2.26290058667639 1.18107849819765 0.0
  endloop
endfacet
facet normal 0.222255411227823 -0.97498847797292 0.0
  outer loop
    vertex 2.29790143883825 1.02753700560348 0.177165354330709
    vertex 2.14395535955077 0.992443925088229 0.0984251968503937
    vertex 2.29790143883825 1.02753700560348 0.0984251968503937
  endloop
endfacet
facet normal 0.222255411227823 -0.97498847797292 0.0
  outer loop
    vertex 2.14395535955077 0.992443925088229 0.0984251968503937
    vertex 2.29790143883825 1.02753700560348 0.177165354330709
    vertex 2.14395535955077 0.992443925088229 0.177165354330709
  endloop
endfacet
facet normal 0.97498847797292 0.222255411227824 0.0
  outer loop
    vertex 2.26290058667639 1.18107849819765 0.0984251968503937
    vertex 2.29790143883825 1.02753700560348 0.177165354330709
    vertex 2.29790143883825 1.02753700560348 0.0984251968503937
  endloop
endfacet
facet normal 0.97498847797292 0.222255411227824 0.0
  outer loop
    vertex 2.29790143883825 1.02753700560348 0.177165354330709
    vertex 2.26290058667639 1.18107849819765 0.0984251968503937
    vertex 2.26290058667639 1.18107849819765 0.177165354330709
  endloop
endfacet
facet normal -0.501224439529804 -0.865317318223803 2.39994478321586e-015
  outer loop
    vertex 2.14395535955077 0.992443925088229 -0.0787401574803147
    vertex 1.95835242325907 1.09995214867128 6.439905864479e-017
    vertex 1.95835242325907 1.09995214867128 -0.0787401574803149
  endloop
endfacet
facet normal -0.501224439529804 -0.865317318223803 2.39994478321586e-015
  outer loop
    vertex 1.95835242325907 1.09995214867128 6.439905864479e-017
    vertex 2.14395535955077 0.992443925088229 -0.0787401574803147
    vertex 2.14395535955077 0.992443925088229 2.17484590946363e-016
  endloop
endfacet
facet normal -0.501224439529804 -0.865317318223803 0.0
  outer loop
    vertex 2.14395535955077 0.992443925088229 0.177165354330709
    vertex 1.95835242325907 1.09995214867128 0.0984251968503937
    vertex 2.14395535955077 0.992443925088229 0.0984251968503937
  endloop
endfacet
facet normal -0.501224439529804 -0.865317318223803 0.0
  outer loop
    vertex 1.95835242325907 1.09995214867128 0.0984251968503937
    vertex 2.14395535955077 0.992443925088229 0.177165354330709
    vertex 1.95835242325907 1.09995214867128 0.177165354330709
  endloop
endfacet
facet normal -0.981188115481944 -0.193054090961552 1.37995914601202e-015
  outer loop
    vertex 1.84387153203622 1.53396503284345 0.0984251968503937
    vertex 1.90467597013435 1.22492940592 0.0
    vertex 1.90467597013435 1.22492940592 0.0984251968503937
  endloop
endfacet
facet normal -0.981188115481944 -0.193054090961552 1.37995914601202e-015
  outer loop
    vertex 1.90467597013435 1.22492940592 0.0
    vertex 1.84387153203622 1.53396503284345 0.0984251968503937
    vertex 1.84387153203622 1.53396503284345 -6.18643256625364e-018
  endloop
endfacet
facet normal -0.215763861244848 0.976445572564449 0.0
  outer loop
    vertex 6.20006797889503 2.49654788653681 0.0984251968503937
    vertex 6.58459885180596 2.58151715491008 -6.78579690367396e-018
    vertex 6.20006797889503 2.49654788653681 -7.83643422426532e-018
  endloop
endfacet
facet normal -0.215763861244848 0.976445572564449 0.0
  outer loop
    vertex 6.58459885180596 2.58151715491008 -6.78579690367396e-018
    vertex 6.20006797889503 2.49654788653681 0.0984251968503937
    vertex 6.58459885180596 2.58151715491008 0.0984251968503937
  endloop
endfacet
facet normal -0.215763861244847 0.976445572564449 6.33878034075721e-016
  outer loop
    vertex 2.30530857952934 1.63592815489136 0.0984251968503937
    vertex 2.61293327785809 1.70390356958998 -1.77417149157491e-018
    vertex 2.30530857952934 1.63592815489136 -3.18060581005928e-018
  endloop
endfacet
facet normal -0.215763861244847 0.976445572564449 6.33878034075721e-016
  outer loop
    vertex 2.61293327785809 1.70390356958998 -1.77417149157491e-018
    vertex 2.30530857952934 1.63592815489136 0.0984251968503937
    vertex 2.61293327785809 1.70390356958998 0.0984251968503937
  endloop
endfacet
facet normal -0.215763861244847 0.976445572564449 3.96572828356402e-018
  outer loop
    vertex 6.57185689149622 2.63918126352609 -6.55160035149498e-018
    vertex 6.80257541524279 2.69016282455005 0.0984251968503937
    vertex 6.80257541524279 2.69016282455005 -1.67784930050185e-017
  endloop
endfacet
facet normal -0.215763861244847 0.976445572564449 3.96572828356402e-018
  outer loop
    vertex 6.80257541524279 2.69016282455005 0.0984251968503937
    vertex 6.57185689149622 2.63918126352609 -6.55160035149498e-018
    vertex 6.57185689149622 2.63918126352609 0.0984251968503937
  endloop
endfacet
facet normal -0.976445572564449 -0.215763861244847 0.0
  outer loop
    vertex 6.57185689149622 2.63918126352609 0.0984251968503937
    vertex 6.58459885180596 2.58151715491008 -6.78579690367396e-018
    vertex 6.58459885180596 2.58151715491008 0.0984251968503937
  endloop
endfacet
facet normal -0.976445572564449 -0.215763861244847 0.0
  outer loop
    vertex 6.58459885180596 2.58151715491008 -6.78579690367396e-018
    vertex 6.57185689149622 2.63918126352609 0.0984251968503937
    vertex 6.57185689149622 2.63918126352609 -6.55160035149498e-018
  endloop
endfacet
facet normal -0.215763861244847 0.976445572564449 2.93915226326072e-016
  outer loop
    vertex 1.83112957172649 1.59162914145946 0.0984251968503937
    vertex 2.29256661921961 1.69359226350737 1.41765925950237e-017
    vertex 1.83112957172649 1.59162914145946 1.11707658388293e-017
  endloop
endfacet
facet normal -0.215763861244847 0.976445572564449 2.93915226326072e-016
  outer loop
    vertex 2.29256661921961 1.69359226350737 1.41765925950237e-017
    vertex 1.83112957172649 1.59162914145946 0.0984251968503937
    vertex 2.29256661921961 1.69359226350737 0.0984251968503937
  endloop
endfacet
facet normal 0.976445572564449 0.215763861244847 0.0
  outer loop
    vertex 2.29256661921961 1.69359226350737 1.41765925950237e-017
    vertex 2.30530857952934 1.63592815489136 0.0984251968503937
    vertex 2.30530857952934 1.63592815489136 -3.18060581005928e-018
  endloop
endfacet
facet normal 0.976445572564449 0.215763861244847 0.0
  outer loop
    vertex 2.30530857952934 1.63592815489136 0.0984251968503937
    vertex 2.29256661921961 1.69359226350737 1.41765925950237e-017
    vertex 2.29256661921961 1.69359226350737 0.0984251968503937
  endloop
endfacet
facet normal -0.976445572564449 -0.215763861244847 2.75354378666404e-015
  outer loop
    vertex 1.83112957172649 1.59162914145946 0.0984251968503937
    vertex 1.84387153203622 1.53396503284345 -6.18643256625364e-018
    vertex 1.84387153203622 1.53396503284345 0.0984251968503937
  endloop
endfacet
facet normal -0.976445572564449 -0.215763861244847 2.75354378666404e-015
  outer loop
    vertex 1.84387153203622 1.53396503284345 -6.18643256625364e-018
    vertex 1.83112957172649 1.59162914145946 0.0984251968503937
    vertex 1.83112957172649 1.59162914145946 1.11707658388293e-017
  endloop
endfacet
facet normal -0.215763861244847 0.976445572564449 4.00106477657121e-016
  outer loop
    vertex 2.62567523816782 1.64623946097397 -2.54025067862868e-017
    vertex 6.21280993920476 2.4388837779208 0.0984251968503937
    vertex 6.21280993920476 2.4388837779208 -3.14647695189772e-017
  endloop
endfacet
facet normal -0.215763861244847 0.976445572564449 4.00106477657121e-016
  outer loop
    vertex 6.21280993920476 2.4388837779208 0.0984251968503937
    vertex 2.62567523816782 1.64623946097397 -2.54025067862868e-017
    vertex 2.62567523816783 1.64623946097397 0.0984251968503937
  endloop
endfacet
facet normal 0.976445572564449 0.215763861244847 -5.50708757332807e-015
  outer loop
    vertex 2.61293327785809 1.70390356958998 -1.77417149157491e-018
    vertex 2.62567523816783 1.64623946097397 0.0984251968503937
    vertex 2.62567523816782 1.64623946097397 -2.54025067862868e-017
  endloop
endfacet
facet normal 0.976445572564449 0.215763861244847 -5.50708757332807e-015
  outer loop
    vertex 2.62567523816783 1.64623946097397 0.0984251968503937
    vertex 2.61293327785809 1.70390356958998 -1.77417149157491e-018
    vertex 2.61293327785809 1.70390356958998 0.0984251968503937
  endloop
endfacet
facet normal -0.976445572564449 -0.215763861244847 0.0
  outer loop
    vertex 6.20006797889503 2.49654788653681 0.0984251968503937
    vertex 6.21280993920476 2.4388837779208 -3.14647695189772e-017
    vertex 6.21280993920476 2.4388837779208 0.0984251968503937
  endloop
endfacet
facet normal -0.976445572564449 -0.215763861244847 0.0
  outer loop
    vertex 6.21280993920476 2.4388837779208 -3.14647695189772e-017
    vertex 6.20006797889503 2.49654788653681 0.0984251968503937
    vertex 6.20006797889503 2.49654788653681 -7.83643422426532e-018
  endloop
endfacet
facet normal 0.0 0.0 1.0
  outer loop
    vertex 1.95835242325907 1.09995214867128 0.177165354330709
    vertex 2.0746047499809 1.25836381630864 0.177165354330709
    vertex 1.92400266585107 1.21233054729753 0.177165354330709
  endloop
endfacet
facet normal 0.0 0.0 1.0
  outer loop
    vertex 2.0746047499809 1.25836381630864 0.177165354330709
    vertex 1.95835242325907 1.09995214867128 0.177165354330709
    vertex 2.14395535955077 0.992443925088229 0.177165354330709
  endloop
endfacet
facet normal 0.0 0.0 1.0
  outer loop
    vertex 2.0746047499809 1.25836381630864 0.177165354330709
    vertex 2.14395535955077 0.992443925088229 0.177165354330709
    vertex 2.22993574040532 1.28892603234182 0.177165354330709
  endloop
endfacet
facet normal 0.0 0.0 1.0
  outer loop
    vertex 2.22993574040532 1.28892603234182 0.177165354330709
    vertex 2.14395535955077 0.992443925088229 0.177165354330709
    vertex 2.29790143883825 1.02753700560348 0.177165354330709
  endloop
endfacet
facet normal 0.0 0.0 1.0
  outer loop
    vertex 2.22993574040532 1.28892603234182 0.177165354330709
    vertex 2.29790143883825 1.02753700560348 0.177165354330709
    vertex 2.26290058667639 1.18107849819765 0.177165354330709
  endloop
endfacet
facet normal 2.96256692199978e-017 -7.89810166224877e-016 -1.0
  outer loop
    vertex 2.0746047499809 1.25836381630864 -0.078740157480315
    vertex 1.95835242325907 1.09995214867128 -0.0787401574803149
    vertex 1.92400266585107 1.21233054729753 -0.0787401574803149
  endloop
endfacet
facet normal 2.96256692199978e-017 -7.89810166224877e-016 -1.0
  outer loop
    vertex 1.95835242325907 1.09995214867128 -0.0787401574803149
    vertex 2.0746047499809 1.25836381630864 -0.078740157480315
    vertex 2.14395535955077 0.992443925088229 -0.0787401574803147
  endloop
endfacet
facet normal 2.96256692199978e-017 -7.89810166224877e-016 -1.0
  outer loop
    vertex 2.14395535955077 0.992443925088229 -0.0787401574803147
    vertex 2.0746047499809 1.25836381630864 -0.078740157480315
    vertex 2.22993574040532 1.28892603234182 -0.078740157480315
  endloop
endfacet
facet normal 2.96256692199978e-017 -7.89810166224877e-016 -1.0
  outer loop
    vertex 2.14395535955077 0.992443925088229 -0.0787401574803147
    vertex 2.22993574040532 1.28892603234182 -0.078740157480315
    vertex 2.29790143883825 1.02753700560348 -0.0787401574803147
  endloop
endfacet
facet normal 2.96256692199978e-017 -7.89810166224877e-016 -1.0
  outer loop
    vertex 2.29790143883825 1.02753700560348 -0.0787401574803147
    vertex 2.22993574040532 1.28892603234182 -0.078740157480315
    vertex 2.26290058667639 1.18107849819765 -0.078740157480315
  endloop
endfacet
facet normal 0.0 0.0 -1.0
  outer loop
    vertex 6.54653055044882 2.16926672186089 -0.078740157480315
    vertex 6.67726072879069 1.65223423098663 -0.078740157480315
    vertex 6.51956640137517 1.65223423098663 -0.078740157480315
  endloop
endfacet
facet normal 0.0 0.0 -1.0
  outer loop
    vertex 6.67726072879069 1.65223423098663 -0.078740157480315
    vertex 6.54653055044882 2.16926672186089 -0.078740157480315
    vertex 6.70422487786435 2.16926672186089 -0.078740157480315
  endloop
endfacet
facet normal 0.0 0.0 -1.0
  outer loop
    vertex 6.67726072879069 1.65223423098663 -0.078740157480315
    vertex 6.70422487786435 2.16926672186089 -0.078740157480315
    vertex 6.99179391468965 1.63583077498941 -0.078740157480315
  endloop
endfacet
facet normal 0.0 0.0 -1.0
  outer loop
    vertex 6.99179391468965 1.63583077498941 -0.078740157480315
    vertex 6.70422487786435 2.16926672186089 -0.078740157480315
    vertex 7.0187580637633 2.15286326586367 -0.078740157480315
  endloop
endfacet
facet normal 7.86407975776153e-016 -6.60929644347164e-016 -1.0
  outer loop
    vertex 5.8 1.28748031496063 -0.0787401574803147
    vertex 5.5 0.97251968503937 -0.0787401574803148
    vertex 5.5 1.28748031496063 -0.078740157480315
  endloop
endfacet
facet normal 7.86407975776153e-016 -6.60929644347164e-016 -1.0
  outer loop
    vertex 5.5 0.97251968503937 -0.0787401574803148
    vertex 5.8 1.28748031496063 -0.0787401574803147
    vertex 5.8 0.97251968503937 -0.0787401574803145
  endloop
endfacet
facet normal 1.04083408558609e-016 -1.98278893304149e-016 -1.0
  outer loop
    vertex 5.1 1.28748031496063 -0.078740157480315
    vertex 4.9 0.97251968503937 -0.0787401574803149
    vertex 4.9 1.28748031496063 -0.078740157480315
  endloop
endfacet
facet normal 1.04083408558609e-016 -1.98278893304149e-016 -1.0
  outer loop
    vertex 4.9 0.97251968503937 -0.0787401574803149
    vertex 5.1 1.28748031496063 -0.078740157480315
    vertex 5.1 0.97251968503937 -0.0787401574803149
  endloop
endfacet
facet normal 2.31296463463574e-017 -2.20309881449055e-017 -1.0
  outer loop
    vertex 3.6 1.28748031496063 -0.078740157480315
    vertex 3.3 0.97251968503937 -0.078740157480315
    vertex 3.3 1.28748031496063 -0.078740157480315
  endloop
endfacet
facet normal 2.31296463463574e-017 -2.20309881449055e-017 -1.0
  outer loop
    vertex 3.3 0.97251968503937 -0.078740157480315
    vertex 3.6 1.28748031496063 -0.078740157480315
    vertex 3.6 0.97251968503937 -0.0787401574803149
  endloop
endfacet
facet normal 0.0 0.0 -1.0
  outer loop
    vertex 2.6 1.28748031496063 -0.078740157480315
    vertex 2.4 0.97251968503937 -0.078740157480315
    vertex 2.4 1.28748031496063 -0.078740157480315
  endloop
endfacet
facet normal 0.0 0.0 -1.0
  outer loop
    vertex 2.4 0.97251968503937 -0.078740157480315
    vertex 2.6 1.28748031496063 -0.078740157480315
    vertex 2.6 0.97251968503937 -0.078740157480315
  endloop
endfacet
facet normal 0.0 0.0 1.0
  outer loop
    vertex 6.67726072879069 1.65223423098663 0.177165354330709
    vertex 6.54653055044882 2.16926672186089 0.177165354330709
    vertex 6.51956640137517 1.65223423098663 0.177165354330709
  endloop
endfacet
facet normal 0.0 0.0 1.0
  outer loop
    vertex 6.54653055044882 2.16926672186089 0.177165354330709
    vertex 6.67726072879069 1.65223423098663 0.177165354330709
    vertex 6.70422487786435 2.16926672186089 0.177165354330709
  endloop
endfacet
facet normal 0.0 0.0 1.0
  outer loop
    vertex 6.70422487786435 2.16926672186089 0.177165354330709
    vertex 6.67726072879069 1.65223423098663 0.177165354330709
    vertex 6.99179391468965 1.63583077498941 0.177165354330709
  endloop
endfacet
facet normal 0.0 0.0 1.0
  outer loop
    vertex 6.70422487786435 2.16926672186089 0.177165354330709
    vertex 6.99179391468965 1.63583077498941 0.177165354330709
    vertex 7.0187580637633 2.15286326586367 0.177165354330709
  endloop
endfacet
facet normal -1.48029736616688e-015 0.0 1.0
  outer loop
    vertex 5.8 0.97251968503937 0.177165354330709
    vertex 5.5 1.28748031496063 0.177165354330709
    vertex 5.5 0.97251968503937 0.177165354330709
  endloop
endfacet
facet normal -1.48029736616688e-015 0.0 1.0
  outer loop
    vertex 5.5 1.28748031496063 0.177165354330709
    vertex 5.8 0.97251968503937 0.177165354330709
    vertex 5.8 1.28748031496063 0.177165354330709
  endloop
endfacet
facet normal 0.0 0.0 1.0
  outer loop
    vertex 5.1 0.97251968503937 0.177165354330709
    vertex 4.9 1.28748031496063 0.177165354330709
    vertex 4.9 0.97251968503937 0.177165354330709
  endloop
endfacet
facet normal 0.0 0.0 1.0
  outer loop
    vertex 4.9 1.28748031496063 0.177165354330709
    vertex 5.1 0.97251968503937 0.177165354330709
    vertex 5.1 1.28748031496063 0.177165354330709
  endloop
endfacet
facet normal 0.0 0.0 1.0
  outer loop
    vertex 2.6 0.97251968503937 0.177165354330709
    vertex 2.4 1.28748031496063 0.177165354330709
    vertex 2.4 0.97251968503937 0.177165354330709
  endloop
endfacet
facet normal 0.0 0.0 1.0
  outer loop
    vertex 2.4 1.28748031496063 0.177165354330709
    vertex 2.6 0.97251968503937 0.177165354330709
    vertex 2.6 1.28748031496063 0.177165354330709
  endloop
endfacet
facet normal 0.0 0.0 1.0
  outer loop
    vertex 3.6 0.97251968503937 0.177165354330709
    vertex 3.3 1.28748031496063 0.177165354330709
    vertex 3.3 0.97251968503937 0.177165354330709
  endloop
endfacet
facet normal 0.0 0.0 1.0
  outer loop
    vertex 3.3 1.28748031496063 0.177165354330709
    vertex 3.6 0.97251968503937 0.177165354330709
    vertex 3.6 1.28748031496063 0.177165354330709
  endloop
endfacet
facet normal 0.976445572564449 0.215763861244847 0.0
  outer loop
    vertex 6.80257541524279 2.69016282455005 -1.67784930050185e-017
    vertex 6.81531737555252 2.63249871593404 0.0984251968503937
    vertex 6.81531737555252 2.63249871593404 -1.70126895571975e-017
  endloop
endfacet
facet normal 0.976445572564449 0.215763861244847 0.0
  outer loop
    vertex 6.81531737555252 2.63249871593404 0.0984251968503937
    vertex 6.80257541524279 2.69016282455005 -1.67784930050185e-017
    vertex 6.80257541524279 2.69016282455005 0.0984251968503937
  endloop
endfacet
facet normal 0.981188115481945 0.19305409096155 0.0
  outer loop
    vertex 6.81531737555252 2.63249871593404 -1.70126895571975e-017
    vertex 6.89892347793744 2.2075747289143 0.0984251968503937
    vertex 6.89892347793744 2.2075747289143 0.0
  endloop
endfacet
facet normal 0.981188115481945 0.19305409096155 0.0
  outer loop
    vertex 6.89892347793744 2.2075747289143 0.0984251968503937
    vertex 6.81531737555252 2.63249871593404 -1.70126895571975e-017
    vertex 6.81531737555252 2.63249871593404 0.0984251968503937
  endloop
endfacet
facet normal -1.68700433863272e-017 6.75286500610499e-017 1.0
  outer loop
    vertex 4.9 1.13 0.0984251968503937
    vertex 3.6 1.28748031496063 0.0984251968503937
    vertex 3.6 1.13 0.0984251968503937
  endloop
endfacet
facet normal -1.68700433863272e-017 6.75286500610499e-017 1.0
  outer loop
    vertex 5.5 1.13 0.0984251968503937
    vertex 5.1 1.28748031496063 0.0984251968503937
    vertex 5.1 1.13 0.0984251968503937
  endloop
endfacet
facet normal -1.68700433863272e-017 6.75286500610499e-017 1.0
  outer loop
    vertex 6.16866918304317 1.13 0.0984251968503937
    vertex 5.8 1.28748031496063 0.0984251968503941
    vertex 5.8 1.13 0.0984251968503941
  endloop
endfacet
facet normal -1.68700433863272e-017 6.75286500610499e-017 1.0
  outer loop
    vertex 3.3 1.13 0.0984251968503937
    vertex 2.6 1.28748031496063 0.0984251968503937
    vertex 2.6 1.13 0.0984251968503937
  endloop
endfacet
facet normal -1.68700433863272e-017 6.75286500610499e-017 1.0
  outer loop
    vertex 2.6 1.28748031496063 0.0984251968503937
    vertex 3.3 1.13 0.0984251968503937
    vertex 2.62567523816783 1.64623946097397 0.0984251968503937
  endloop
endfacet
facet normal -1.68700433863272e-017 6.75286500610499e-017 1.0
  outer loop
    vertex 2.6 1.28748031496063 0.0984251968503937
    vertex 2.62567523816783 1.64623946097397 0.0984251968503937
    vertex 2.61293327785809 1.70390356958998 0.0984251968503937
  endloop
endfacet
facet normal -1.68700433863272e-017 6.75286500610499e-017 1.0
  outer loop
    vertex 2.62567523816783 1.64623946097397 0.0984251968503937
    vertex 3.3 1.13 0.0984251968503937
    vertex 3.3 1.28748031496063 0.0984251968503937
  endloop
endfacet
facet normal -1.68700433863272e-017 6.75286500610499e-017 1.0
  outer loop
    vertex 2.62567523816783 1.64623946097397 0.0984251968503937
    vertex 3.3 1.28748031496063 0.0984251968503937
    vertex 6.21280993920476 2.4388837779208 0.0984251968503937
  endloop
endfacet
facet normal -1.68700433863272e-017 6.75286500610499e-017 1.0
  outer loop
    vertex 6.21280993920476 2.4388837779208 0.0984251968503937
    vertex 3.3 1.28748031496063 0.0984251968503937
    vertex 3.6 1.28748031496063 0.0984251968503937
  endloop
endfacet
facet normal -1.68700433863272e-017 6.75286500610499e-017 1.0
  outer loop
    vertex 6.21280993920476 2.4388837779208 0.0984251968503937
    vertex 3.6 1.28748031496063 0.0984251968503937
    vertex 4.9 1.28748031496063 0.0984251968503937
  endloop
endfacet
facet normal -1.68700433863272e-017 6.75286500610499e-017 1.0
  outer loop
    vertex 4.9 1.28748031496063 0.0984251968503937
    vertex 3.6 1.28748031496063 0.0984251968503937
    vertex 4.9 1.13 0.0984251968503937
  endloop
endfacet
facet normal -1.68700433863272e-017 6.75286500610499e-017 1.0
  outer loop
    vertex 6.21280993920476 2.4388837779208 0.0984251968503937
    vertex 4.9 1.28748031496063 0.0984251968503937
    vertex 5.1 1.28748031496063 0.0984251968503937
  endloop
endfacet
facet normal -1.68700433863272e-017 6.75286500610499e-017 1.0
  outer loop
    vertex 6.21280993920476 2.4388837779208 0.0984251968503937
    vertex 5.1 1.28748031496063 0.0984251968503937
    vertex 5.5 1.28748031496063 0.0984251968503937
  endloop
endfacet
facet normal -1.68700433863272e-017 6.75286500610499e-017 1.0
  outer loop
    vertex 5.5 1.28748031496063 0.0984251968503937
    vertex 5.1 1.28748031496063 0.0984251968503937
    vertex 5.5 1.13 0.0984251968503937
  endloop
endfacet
facet normal -1.68700433863272e-017 6.75286500610499e-017 1.0
  outer loop
    vertex 6.21280993920476 2.4388837779208 0.0984251968503937
    vertex 5.5 1.28748031496063 0.0984251968503937
    vertex 5.8 1.28748031496063 0.0984251968503941
  endloop
endfacet
facet normal -1.68700433863272e-017 6.75286500610499e-017 1.0
  outer loop
    vertex 6.21280993920476 2.4388837779208 0.0984251968503937
    vertex 5.8 1.28748031496063 0.0984251968503941
    vertex 6.16866918304317 1.4262567787875 0.0984251968503937
  endloop
endfacet
facet normal -1.68700433863272e-017 6.75286500610499e-017 1.0
  outer loop
    vertex 6.16866918304317 1.4262567787875 0.0984251968503937
    vertex 5.8 1.28748031496063 0.0984251968503941
    vertex 6.16866918304317 1.13 0.0984251968503937
  endloop
endfacet
facet normal -1.68700433863272e-017 6.75286500610499e-017 1.0
  outer loop
    vertex 6.21280993920476 2.4388837779208 0.0984251968503937
    vertex 6.16866918304317 1.4262567787875 0.0984251968503937
    vertex 6.44918765490147 1.48233384899693 0.0984251968503937
  endloop
endfacet
facet normal -1.68700433863272e-017 6.75286500610499e-017 1.0
  outer loop
    vertex 6.67726072879069 1.65223423098663 0.0984251968503937
    vertex 6.51956640137517 1.65223423098663 0.0984251968503937
    vertex 6.45572239371435 1.61705680494716 0.0984251968503937
  endloop
endfacet
facet normal -1.68700433863272e-017 6.75286500610499e-017 1.0
  outer loop
    vertex 6.21280993920476 2.4388837779208 0.0984251968503937
    vertex 6.58459885180596 2.58151715491008 0.0984251968503937
    vertex 6.20006797889503 2.49654788653681 0.0984251968503937
  endloop
endfacet
facet normal -1.68700433863272e-017 6.75286500610499e-017 1.0
  outer loop
    vertex 6.58459885180596 2.58151715491008 0.0984251968503937
    vertex 6.21280993920476 2.4388837779208 0.0984251968503937
    vertex 6.45572239371435 1.61705680494716 0.0984251968503937
  endloop
endfacet
facet normal -1.68700433863272e-017 6.75286500610499e-017 1.0
  outer loop
    vertex 6.45572239371435 1.61705680494716 0.0984251968503937
    vertex 6.21280993920476 2.4388837779208 0.0984251968503937
    vertex 6.44918765490147 1.48233384899693 0.0984251968503937
  endloop
endfacet
facet normal -1.68700433863272e-017 6.75286500610499e-017 1.0
  outer loop
    vertex 6.58459885180596 2.58151715491008 0.0984251968503937
    vertex 6.45572239371435 1.61705680494716 0.0984251968503937
    vertex 6.54653055044882 2.16926672186089 0.0984251968503937
  endloop
endfacet
facet normal -1.68700433863272e-017 6.75286500610499e-017 1.0
  outer loop
    vertex 6.54653055044882 2.16926672186089 0.0984251968503937
    vertex 6.45572239371435 1.61705680494716 0.0984251968503937
    vertex 6.51956640137517 1.65223423098663 0.0984251968503937
  endloop
endfacet
facet normal -1.68700433863272e-017 6.75286500610499e-017 1.0
  outer loop
    vertex 6.58459885180596 2.58151715491008 0.0984251968503937
    vertex 6.54653055044882 2.16926672186089 0.0984251968503937
    vertex 6.70422487786435 2.16926672186089 0.0984251968503937
  endloop
endfacet
facet normal -1.68700433863272e-017 6.75286500610499e-017 1.0
  outer loop
    vertex 6.58459885180596 2.58151715491008 0.0984251968503937
    vertex 6.80257541524279 2.69016282455005 0.0984251968503937
    vertex 6.57185689149622 2.63918126352609 0.0984251968503937
  endloop
endfacet
facet normal -1.68700433863272e-017 6.75286500610499e-017 1.0
  outer loop
    vertex 6.80257541524279 2.69016282455005 0.0984251968503937
    vertex 6.58459885180596 2.58151715491008 0.0984251968503937
    vertex 6.70422487786435 2.16926672186089 0.0984251968503937
  endloop
endfacet
facet normal -1.68700433863272e-017 6.75286500610499e-017 1.0
  outer loop
    vertex 6.80257541524279 2.69016282455005 0.0984251968503937
    vertex 6.70422487786435 2.16926672186089 0.0984251968503937
    vertex 6.89892347793744 2.2075747289143 0.0984251968503937
  endloop
endfacet
facet normal -1.68700433863272e-017 6.75286500610499e-017 1.0
  outer loop
    vertex 6.80257541524279 2.69016282455005 0.0984251968503937
    vertex 6.89892347793744 2.2075747289143 0.0984251968503937
    vertex 6.81531737555252 2.63249871593404 0.0984251968503937
  endloop
endfacet
facet normal -1.68700433863272e-017 6.75286500610499e-017 1.0
  outer loop
    vertex 1.84387153203622 1.53396503284345 0.0984251968503937
    vertex 2.29256661921961 1.69359226350737 0.0984251968503937
    vertex 1.83112957172649 1.59162914145946 0.0984251968503937
  endloop
endfacet
facet normal -1.68700433863272e-017 6.75286500610499e-017 1.0
  outer loop
    vertex 2.29256661921961 1.69359226350737 0.0984251968503937
    vertex 1.84387153203622 1.53396503284345 0.0984251968503937
    vertex 1.90467597013435 1.22492940592 0.0984251968503937
  endloop
endfacet
facet normal -1.68700433863272e-017 6.75286500610499e-017 1.0
  outer loop
    vertex 2.29256661921961 1.69359226350737 0.0984251968503937
    vertex 1.90467597013435 1.22492940592 0.0984251968503937
    vertex 2.0746047499809 1.25836381630864 0.0984251968503937
  endloop
endfacet
facet normal -1.68700433863272e-017 6.75286500610499e-017 1.0
  outer loop
    vertex 2.29256661921961 1.69359226350737 0.0984251968503937
    vertex 2.0746047499809 1.25836381630864 0.0984251968503937
    vertex 2.22993574040532 1.28892603234182 0.0984251968503937
  endloop
endfacet
facet normal -1.68700433863272e-017 6.75286500610499e-017 1.0
  outer loop
    vertex 2.29256661921961 1.69359226350737 0.0984251968503937
    vertex 2.22993574040532 1.28892603234182 0.0984251968503937
    vertex 2.26290058667639 1.18107849819765 0.0984251968503937
  endloop
endfacet
facet normal -1.68700433863272e-017 6.75286500610499e-017 1.0
  outer loop
    vertex 2.29256661921961 1.69359226350737 0.0984251968503937
    vertex 2.26290058667639 1.18107849819765 0.0984251968503937
    vertex 2.29708593758548 1.18887128692892 0.0984251968503937
  endloop
endfacet
facet normal -1.68700433863272e-017 6.75286500610499e-017 1.0
  outer loop
    vertex 2.29256661921961 1.69359226350737 0.0984251968503937
    vertex 2.29708593758548 1.18887128692892 0.0984251968503937
    vertex 2.30530857952934 1.63592815489136 0.0984251968503937
  endloop
endfacet
facet normal -1.68700433863272e-017 6.75286500610499e-017 1.0
  outer loop
    vertex 2.30530857952934 1.63592815489136 0.0984251968503937
    vertex 2.29708593758548 1.18887128692892 0.0984251968503937
    vertex 2.30866918304317 1.13 0.0984251968503937
  endloop
endfacet
facet normal -1.68700433863272e-017 6.75286500610499e-017 1.0
  outer loop
    vertex 2.30530857952934 1.63592815489136 0.0984251968503937
    vertex 2.30866918304317 1.13 0.0984251968503937
    vertex 2.61293327785809 1.70390356958998 0.0984251968503937
  endloop
endfacet
facet normal -1.68700433863272e-017 6.75286500610499e-017 1.0
  outer loop
    vertex 2.61293327785809 1.70390356958998 0.0984251968503937
    vertex 2.30866918304317 1.13 0.0984251968503937
    vertex 2.4 1.28748031496063 0.0984251968503937
  endloop
endfacet
facet normal -1.68700433863272e-017 6.75286500610499e-017 1.0
  outer loop
    vertex 2.4 1.28748031496063 0.0984251968503937
    vertex 2.30866918304317 1.13 0.0984251968503937
    vertex 2.4 1.13 0.0984251968503937
  endloop
endfacet
facet normal -1.68700433863272e-017 6.75286500610499e-017 1.0
  outer loop
    vertex 2.61293327785809 1.70390356958998 0.0984251968503937
    vertex 2.4 1.28748031496063 0.0984251968503937
    vertex 2.6 1.28748031496063 0.0984251968503937
  endloop
endfacet
facet normal 1.90106011934385e-017 -8.61217345199939e-017 -1.0
  outer loop
    vertex 2.29256661921961 1.69359226350737 1.41765925950237e-017
    vertex 1.84387153203622 1.53396503284345 -6.18643256625364e-018
    vertex 1.83112957172649 1.59162914145946 1.11707658388293e-017
  endloop
endfacet
facet normal 1.90106011934385e-017 -8.61217345199939e-017 -1.0
  outer loop
    vertex 1.84387153203622 1.53396503284345 -6.18643256625364e-018
    vertex 2.29256661921961 1.69359226350737 1.41765925950237e-017
    vertex 1.90467597013435 1.22492940592 0.0
  endloop
endfacet
facet normal 1.90106011934385e-017 -8.61217345199939e-017 -1.0
  outer loop
    vertex 1.90467597013435 1.22492940592 0.0
    vertex 2.29256661921961 1.69359226350737 1.41765925950237e-017
    vertex 2.0746047499809 1.25836381630864 0.0
  endloop
endfacet
facet normal 1.90106011934385e-017 -8.61217345199939e-017 -1.0
  outer loop
    vertex 2.0746047499809 1.25836381630864 0.0
    vertex 2.29256661921961 1.69359226350737 1.41765925950237e-017
    vertex 2.22993574040532 1.28892603234182 0.0
  endloop
endfacet
facet normal 1.90106011934385e-017 -8.61217345199939e-017 -1.0
  outer loop
    vertex 2.22993574040532 1.28892603234182 0.0
    vertex 2.29256661921961 1.69359226350737 1.41765925950237e-017
    vertex 2.26290058667639 1.18107849819765 0.0
  endloop
endfacet
facet normal 1.90106011934385e-017 -8.61217345199939e-017 -1.0
  outer loop
    vertex 2.26290058667639 1.18107849819765 0.0
    vertex 2.29256661921961 1.69359226350737 1.41765925950237e-017
    vertex 2.29708593758548 1.18887128692892 0.0
  endloop
endfacet
facet normal 1.90106011934385e-017 -8.61217345199939e-017 -1.0
  outer loop
    vertex 2.29708593758548 1.18887128692892 0.0
    vertex 2.29256661921961 1.69359226350737 1.41765925950237e-017
    vertex 2.30530857952934 1.63592815489136 -3.18060581005928e-018
  endloop
endfacet
facet normal 1.90106011934385e-017 -8.61217345199939e-017 -1.0
  outer loop
    vertex 2.29708593758548 1.18887128692892 0.0
    vertex 2.30530857952934 1.63592815489136 -3.18060581005928e-018
    vertex 2.30866918304317 1.13 0.0
  endloop
endfacet
facet normal 1.90106011934385e-017 -8.61217345199939e-017 -1.0
  outer loop
    vertex 2.30866918304317 1.13 0.0
    vertex 2.30530857952934 1.63592815489136 -3.18060581005928e-018
    vertex 2.61293327785809 1.70390356958998 -1.77417149157491e-018
  endloop
endfacet
facet normal 1.90106011934385e-017 -8.61217345199939e-017 -1.0
  outer loop
    vertex 2.30866918304317 1.13 0.0
    vertex 2.61293327785809 1.70390356958998 -1.77417149157491e-018
    vertex 2.4 1.28748031496063 0.0
  endloop
endfacet
facet normal 1.90106011934385e-017 -8.61217345199939e-017 -1.0
  outer loop
    vertex 2.4 1.28748031496063 0.0
    vertex 2.61293327785809 1.70390356958998 -1.77417149157491e-018
    vertex 2.6 1.28748031496063 0.0
  endloop
endfacet
facet normal 1.90106011934385e-017 -8.61217345199939e-017 -1.0
  outer loop
    vertex 2.6 1.28748031496063 0.0
    vertex 2.61293327785809 1.70390356958998 -1.77417149157491e-018
    vertex 2.6 1.13 5.70634163584014e-019
  endloop
endfacet
facet normal 1.90106011934385e-017 -8.61217345199939e-017 -1.0
  outer loop
    vertex 2.6 1.13 5.70634163584014e-019
    vertex 2.61293327785809 1.70390356958998 -1.77417149157491e-018
    vertex 2.62567523816782 1.64623946097397 -2.54025067862868e-017
  endloop
endfacet
facet normal 1.90106011934385e-017 -8.61217345199939e-017 -1.0
  outer loop
    vertex 2.6 1.13 5.70634163584014e-019
    vertex 2.62567523816782 1.64623946097397 -2.54025067862868e-017
    vertex 3.3 1.13 3.88346991559799e-018
  endloop
endfacet
facet normal 1.90106011934385e-017 -8.61217345199939e-017 -1.0
  outer loop
    vertex 3.3 1.13 3.88346991559799e-018
    vertex 2.62567523816782 1.64623946097397 -2.54025067862868e-017
    vertex 3.3 1.28748031496063 0.0
  endloop
endfacet
facet normal 1.90106011934385e-017 -8.61217345199939e-017 -1.0
  outer loop
    vertex 6.21280993920476 2.4388837779208 -3.14647695189772e-017
    vertex 3.3 1.28748031496063 0.0
    vertex 2.62567523816782 1.64623946097397 -2.54025067862868e-017
  endloop
endfacet
facet normal 1.90106011934385e-017 -8.61217345199939e-017 -1.0
  outer loop
    vertex 3.3 1.28748031496063 0.0
    vertex 6.21280993920476 2.4388837779208 -3.14647695189772e-017
    vertex 3.6 1.28748031496063 0.0
  endloop
endfacet
facet normal 1.90106011934385e-017 -8.61217345199939e-017 -1.0
  outer loop
    vertex 3.6 1.28748031496063 0.0
    vertex 6.21280993920476 2.4388837779208 -3.14647695189772e-017
    vertex 3.6 1.13 1.01173983355645e-017
  endloop
endfacet
facet normal 1.90106011934385e-017 -8.61217345199939e-017 -1.0
  outer loop
    vertex 3.6 1.13 1.01173983355645e-017
    vertex 6.21280993920476 2.4388837779208 -3.14647695189772e-017
    vertex 4.9 1.28748031496063 0.0
  endloop
endfacet
facet normal 1.90106011934385e-017 -8.61217345199939e-017 -1.0
  outer loop
    vertex 4.9 1.28748031496063 0.0
    vertex 6.21280993920476 2.4388837779208 -3.14647695189772e-017
    vertex 5.1 1.28748031496063 0.0
  endloop
endfacet
facet normal 1.90106011934385e-017 -8.61217345199939e-017 -1.0
  outer loop
    vertex 5.1 1.28748031496063 0.0
    vertex 6.21280993920476 2.4388837779208 -3.14647695189772e-017
    vertex 5.1 1.13 8.7478763429629e-017
  endloop
endfacet
facet normal 1.90106011934385e-017 -8.61217345199939e-017 -1.0
  outer loop
    vertex 5.1 1.13 8.7478763429629e-017
    vertex 6.21280993920476 2.4388837779208 -3.14647695189772e-017
    vertex 5.5 1.28748031496063 0.0
  endloop
endfacet
facet normal 1.90106011934385e-017 -8.61217345199939e-017 -1.0
  outer loop
    vertex 5.5 1.28748031496063 0.0
    vertex 6.21280993920476 2.4388837779208 -3.14647695189772e-017
    vertex 5.8 1.28748031496063 2.18832752274137e-016
  endloop
endfacet
facet normal 1.90106011934385e-017 -8.61217345199939e-017 -1.0
  outer loop
    vertex 5.8 1.28748031496063 2.18832752274137e-016
    vertex 6.21280993920476 2.4388837779208 -3.14647695189772e-017
    vertex 5.8 1.13 4.37665504548275e-016
  endloop
endfacet
facet normal 1.90106011934385e-017 -8.61217345199939e-017 -1.0
  outer loop
    vertex 5.8 1.13 4.37665504548275e-016
    vertex 6.21280993920476 2.4388837779208 -3.14647695189772e-017
    vertex 6.16866918304317 1.4262567787875 0.0
  endloop
endfacet
facet normal 1.90106011934385e-017 -8.61217345199939e-017 -1.0
  outer loop
    vertex 6.16866918304317 1.4262567787875 0.0
    vertex 6.21280993920476 2.4388837779208 -3.14647695189772e-017
    vertex 6.44918765490147 1.48233384899693 0.0
  endloop
endfacet
facet normal 1.90106011934385e-017 -8.61217345199939e-017 -1.0
  outer loop
    vertex 6.80257541524279 2.69016282455005 -1.67784930050185e-017
    vertex 6.58459885180596 2.58151715491008 -6.78579690367396e-018
    vertex 6.57185689149622 2.63918126352609 -6.55160035149498e-018
  endloop
endfacet
facet normal 1.90106011934385e-017 -8.61217345199939e-017 -1.0
  outer loop
    vertex 6.58459885180596 2.58151715491008 -6.78579690367396e-018
    vertex 6.80257541524279 2.69016282455005 -1.67784930050185e-017
    vertex 6.70422487786435 2.16926672186089 0.0
  endloop
endfacet
facet normal 1.90106011934385e-017 -8.61217345199939e-017 -1.0
  outer loop
    vertex 6.70422487786435 2.16926672186089 0.0
    vertex 6.80257541524279 2.69016282455005 -1.67784930050185e-017
    vertex 6.89892347793744 2.2075747289143 0.0
  endloop
endfacet
facet normal 1.90106011934385e-017 -8.61217345199939e-017 -1.0
  outer loop
    vertex 6.89892347793744 2.2075747289143 0.0
    vertex 6.80257541524279 2.69016282455005 -1.67784930050185e-017
    vertex 6.81531737555252 2.63249871593404 -1.70126895571975e-017
  endloop
endfacet
facet normal 1.90106011934385e-017 -8.61217345199939e-017 -1.0
  outer loop
    vertex 6.58459885180596 2.58151715491008 -6.78579690367396e-018
    vertex 6.21280993920476 2.4388837779208 -3.14647695189772e-017
    vertex 6.20006797889503 2.49654788653681 -7.83643422426532e-018
  endloop
endfacet
facet normal 1.90106011934385e-017 -8.61217345199939e-017 -1.0
  outer loop
    vertex 6.21280993920476 2.4388837779208 -3.14647695189772e-017
    vertex 6.58459885180596 2.58151715491008 -6.78579690367396e-018
    vertex 6.45572239371435 1.61705680494716 0.0
  endloop
endfacet
facet normal 1.90106011934385e-017 -8.61217345199939e-017 -1.0
  outer loop
    vertex 6.21280993920476 2.4388837779208 -3.14647695189772e-017
    vertex 6.45572239371435 1.61705680494716 0.0
    vertex 6.44918765490147 1.48233384899693 0.0
  endloop
endfacet
facet normal 1.90106011934385e-017 -8.61217345199939e-017 -1.0
  outer loop
    vertex 6.45572239371435 1.61705680494716 0.0
    vertex 6.58459885180596 2.58151715491008 -6.78579690367396e-018
    vertex 6.54653055044882 2.16926672186089 -1.91639185900379e-018
  endloop
endfacet
facet normal 1.90106011934385e-017 -8.61217345199939e-017 -1.0
  outer loop
    vertex 6.45572239371435 1.61705680494716 0.0
    vertex 6.54653055044882 2.16926672186089 -1.91639185900379e-018
    vertex 6.51956640137517 1.65223423098663 -1.91639185900379e-018
  endloop
endfacet
facet normal 1.90106011934385e-017 -8.61217345199939e-017 -1.0
  outer loop
    vertex 6.54653055044882 2.16926672186089 -1.91639185900379e-018
    vertex 6.58459885180596 2.58151715491008 -6.78579690367396e-018
    vertex 6.70422487786435 2.16926672186089 0.0
  endloop
endfacet
facet normal 1.90106011934385e-017 -8.61217345199939e-017 -1.0
  outer loop
    vertex 6.67726072879069 1.65223423098663 0.0
    vertex 6.45572239371435 1.61705680494716 0.0
    vertex 6.51956640137517 1.65223423098663 -1.91639185900379e-018
  endloop
endfacet
facet normal 1.90106011934385e-017 -8.61217345199939e-017 -1.0
  outer loop
    vertex 6.16866918304317 1.13 0.0
    vertex 5.8 1.13 4.37665504548275e-016
    vertex 6.16866918304317 1.4262567787875 0.0
  endloop
endfacet
facet normal 1.90106011934385e-017 -8.61217345199939e-017 -1.0
  outer loop
    vertex 5.5 1.13 2.00029084239189e-016
    vertex 5.1 1.13 8.7478763429629e-017
    vertex 5.5 1.28748031496063 0.0
  endloop
endfacet
facet normal 1.90106011934385e-017 -8.61217345199939e-017 -1.0
  outer loop
    vertex 4.9 1.13 4.06054370423231e-017
    vertex 3.6 1.13 1.01173983355645e-017
    vertex 4.9 1.28748031496063 0.0
  endloop
endfacet
facet normal 1.90106011934385e-017 -8.61217345199939e-017 -1.0
  outer loop
    vertex 2.4 1.13 8.94455397612948e-020
    vertex 2.30866918304317 1.13 0.0
    vertex 2.4 1.28748031496063 0.0
  endloop
endfacet
facet normal 0.0 0.0 1.0
  outer loop
    vertex 6.99179391468965 1.63583077498941 0.0
    vertex 6.70422487786435 2.16926672186089 0.0
    vertex 6.67726072879069 1.65223423098663 0.0
  endloop
endfacet
facet normal 0.0 0.0 1.0
  outer loop
    vertex 6.70422487786435 2.16926672186089 0.0
    vertex 6.99179391468965 1.63583077498941 0.0
    vertex 7.0187580637633 2.15286326586367 0.0
  endloop
endfacet
facet normal -7.92121401030286e-016 6.21266481460374e-032 1.0
  outer loop
    vertex 5.8 0.97251968503937 4.37665504548275e-016
    vertex 5.5 1.13 2.00029084239189e-016
    vertex 5.5 0.97251968503937 2.00029084239189e-016
  endloop
endfacet
facet normal -7.92121401030286e-016 6.21266481460374e-032 1.0
  outer loop
    vertex 5.5 1.13 2.00029084239189e-016
    vertex 5.8 0.97251968503937 4.37665504548275e-016
    vertex 5.8 1.13 4.37665504548275e-016
  endloop
endfacet
facet normal -2.3436663193653e-016 1.55316620365109e-032 1.0
  outer loop
    vertex 5.1 0.97251968503937 8.7478763429629e-017
    vertex 4.9 1.13 4.06054370423231e-017
    vertex 4.9 0.97251968503937 4.06054370423231e-017
  endloop
endfacet
facet normal -2.3436663193653e-016 1.55316620365109e-032 1.0
  outer loop
    vertex 4.9 1.13 4.06054370423231e-017
    vertex 5.1 0.97251968503937 8.7478763429629e-017
    vertex 5.1 1.13 8.7478763429629e-017
  endloop
endfacet
facet normal -2.07797613998885e-017 -1.6524504640635e-046 1.0
  outer loop
    vertex 3.6 0.97251968503937 1.01173983355645e-017
    vertex 3.3 1.13 3.88346991559799e-018
    vertex 3.3 0.97251968503937 3.88346991559799e-018
  endloop
endfacet
facet normal -2.07797613998885e-017 -1.6524504640635e-046 1.0
  outer loop
    vertex 3.3 1.13 3.88346991559799e-018
    vertex 3.6 0.97251968503937 1.01173983355645e-017
    vertex 3.6 1.13 1.01173983355645e-017
  endloop
endfacet
facet normal -2.40594311911359e-018 0.0 1.0
  outer loop
    vertex 2.6 0.97251968503937 5.70634163584014e-019
    vertex 2.4 1.13 8.94455397612948e-020
    vertex 2.4 0.97251968503937 8.94455397612948e-020
  endloop
endfacet
facet normal -2.40594311911359e-018 0.0 1.0
  outer loop
    vertex 2.4 1.13 8.94455397612948e-020
    vertex 2.6 0.97251968503937 5.70634163584014e-019
    vertex 2.6 1.13 5.70634163584014e-019
  endloop
endfacet
facet normal 1.07766943139402e-017 8.8228506398877e-016 1.0
  outer loop
    vertex 1.95835242325907 1.09995214867128 6.439905864479e-017
    vertex 2.0746047499809 1.25836381630864 0.0
    vertex 1.92400266585107 1.21233054729753 6.439905864479e-017
  endloop
endfacet
facet normal 1.07766943139402e-017 8.8228506398877e-016 1.0
  outer loop
    vertex 2.0746047499809 1.25836381630864 0.0
    vertex 1.95835242325907 1.09995214867128 6.439905864479e-017
    vertex 2.14395535955077 0.992443925088229 2.17484590946363e-016
  endloop
endfacet
facet normal 1.07766943139402e-017 8.8228506398877e-016 1.0
  outer loop
    vertex 2.0746047499809 1.25836381630864 0.0
    vertex 2.14395535955077 0.992443925088229 2.17484590946363e-016
    vertex 2.10895450738891 1.14598541768239 0.0
  endloop
endfacet
facet normal 1.07766943139402e-017 8.8228506398877e-016 1.0
  outer loop
    vertex 2.10895450738891 1.14598541768239 0.0
    vertex 2.14395535955077 0.992443925088229 2.17484590946363e-016
    vertex 2.26290058667639 1.18107849819765 0.0
  endloop
endfacet
facet normal 1.07766943139402e-017 8.8228506398877e-016 1.0
  outer loop
    vertex 2.26290058667639 1.18107849819765 0.0
    vertex 2.14395535955077 0.992443925088229 2.17484590946363e-016
    vertex 2.29790143883825 1.02753700560348 2.17484590946363e-016
  endloop
endfacet
facet normal 1.48029736616688e-015 1.17716369432786e-044 -1.0
  outer loop
    vertex 5.8 1.13 0.0984251968503941
    vertex 5.5 0.97251968503937 0.0984251968503937
    vertex 5.5 1.13 0.0984251968503937
  endloop
endfacet
facet normal 1.48029736616688e-015 1.17716369432786e-044 -1.0
  outer loop
    vertex 5.5 0.97251968503937 0.0984251968503937
    vertex 5.8 1.13 0.0984251968503941
    vertex 5.8 0.97251968503937 0.0984251968503941
  endloop
endfacet
facet normal 0.0 0.0 -1.0
  outer loop
    vertex 5.1 1.13 0.0984251968503937
    vertex 4.9 0.97251968503937 0.0984251968503937
    vertex 4.9 1.13 0.0984251968503937
  endloop
endfacet
facet normal 0.0 0.0 -1.0
  outer loop
    vertex 4.9 0.97251968503937 0.0984251968503937
    vertex 5.1 1.13 0.0984251968503937
    vertex 5.1 0.97251968503937 0.0984251968503937
  endloop
endfacet
facet normal 0.0 0.0 -1.0
  outer loop
    vertex 3.6 1.13 0.0984251968503937
    vertex 3.3 0.97251968503937 0.0984251968503937
    vertex 3.3 1.13 0.0984251968503937
  endloop
endfacet
facet normal 0.0 0.0 -1.0
  outer loop
    vertex 3.3 0.97251968503937 0.0984251968503937
    vertex 3.6 1.13 0.0984251968503937
    vertex 3.6 0.97251968503937 0.0984251968503937
  endloop
endfacet
facet normal 0.0 0.0 -1.0
  outer loop
    vertex 2.6 1.13 0.0984251968503937
    vertex 2.4 0.97251968503937 0.0984251968503937
    vertex 2.4 1.13 0.0984251968503937
  endloop
endfacet
facet normal 0.0 0.0 -1.0
  outer loop
    vertex 2.4 0.97251968503937 0.0984251968503937
    vertex 2.6 1.13 0.0984251968503937
    vertex 2.6 0.97251968503937 0.0984251968503937
  endloop
endfacet
facet normal 0.0 0.0 -1.0
  outer loop
    vertex 2.0746047499809 1.25836381630864 0.0984251968503937
    vertex 1.95835242325907 1.09995214867128 0.0984251968503937
    vertex 1.92400266585107 1.21233054729753 0.0984251968503937
  endloop
endfacet
facet normal 0.0 0.0 -1.0
  outer loop
    vertex 1.95835242325907 1.09995214867128 0.0984251968503937
    vertex 2.0746047499809 1.25836381630864 0.0984251968503937
    vertex 2.14395535955077 0.992443925088229 0.0984251968503937
  endloop
endfacet
facet normal 0.0 0.0 -1.0
  outer loop
    vertex 2.14395535955077 0.992443925088229 0.0984251968503937
    vertex 2.0746047499809 1.25836381630864 0.0984251968503937
    vertex 2.10895450738891 1.14598541768239 0.0984251968503937
  endloop
endfacet
facet normal 0.0 0.0 -1.0
  outer loop
    vertex 2.14395535955077 0.992443925088229 0.0984251968503937
    vertex 2.10895450738891 1.14598541768239 0.0984251968503937
    vertex 2.26290058667639 1.18107849819765 0.0984251968503937
  endloop
endfacet
facet normal 0.0 0.0 -1.0
  outer loop
    vertex 2.14395535955077 0.992443925088229 0.0984251968503937
    vertex 2.26290058667639 1.18107849819765 0.0984251968503937
    vertex 2.29790143883825 1.02753700560348 0.0984251968503937
  endloop
endfacet
facet normal 0.0 0.0 -1.0
  outer loop
    vertex 6.70422487786435 2.16926672186089 0.0984251968503937
    vertex 6.99179391468965 1.63583077498941 0.0984251968503937
    vertex 6.67726072879069 1.65223423098663 0.0984251968503937
  endloop
endfacet
facet normal 0.0 0.0 -1.0
  outer loop
    vertex 6.99179391468965 1.63583077498941 0.0984251968503937
    vertex 6.70422487786435 2.16926672186089 0.0984251968503937
    vertex 7.0187580637633 2.15286326586367 0.0984251968503937
  endloop
endfacet
endsolid lkbracket
