G04 MADE WITH FRITZING*
G04 WWW.FRITZING.ORG*
G04 DOUBLE SIDED*
G04 HOLES PLATED*
G04 CONTOUR ON CENTER OF CONTOUR VECTOR*
%ASAXBY*%
%FSLAX23Y23*%
%MOIN*%
%OFA0B0*%
%SFA1.0B1.0*%
%ADD10C,0.088639*%
%ADD11C,0.158908*%
%ADD12C,0.065278*%
%ADD13C,0.092000*%
%ADD14C,0.088000*%
%ADD15C,0.049370*%
%ADD16C,0.085000*%
%ADD17C,0.072992*%
%ADD18C,0.206850*%
%ADD19C,0.246220*%
%ADD20C,0.285590*%
%ADD21C,0.128110*%
%ADD22C,0.135984*%
%ADD23C,0.130079*%
%ADD24C,0.167480*%
%ADD25R,0.092000X0.092000*%
%ADD26R,0.072992X0.072992*%
%LNMASK0*%
G90*
G70*
G54D10*
X14384Y709D03*
X14633Y809D03*
G54D11*
X14534Y609D03*
G54D12*
X14334Y609D03*
X14733Y609D03*
G54D10*
X16255Y1086D03*
X16505Y1185D03*
G54D11*
X16405Y986D03*
G54D12*
X16205Y986D03*
X16604Y986D03*
G54D10*
X15506Y710D03*
X15756Y810D03*
G54D11*
X15656Y610D03*
G54D12*
X15456Y610D03*
X15855Y610D03*
G54D10*
X14004Y1458D03*
X14253Y1558D03*
G54D11*
X14154Y1358D03*
G54D12*
X13954Y1358D03*
X14353Y1358D03*
G54D10*
X15502Y1459D03*
X15751Y1559D03*
G54D11*
X15652Y1359D03*
G54D12*
X15452Y1359D03*
X15851Y1359D03*
G54D10*
X14753Y1459D03*
X15002Y1559D03*
G54D11*
X14903Y1359D03*
G54D12*
X14703Y1359D03*
X15102Y1359D03*
G54D10*
X14006Y2209D03*
X14256Y2309D03*
G54D11*
X14156Y2109D03*
G54D12*
X13956Y2109D03*
X14355Y2109D03*
G54D10*
X16255Y2210D03*
X16505Y2310D03*
G54D11*
X16405Y2110D03*
G54D12*
X16205Y2110D03*
X16604Y2110D03*
G54D10*
X15504Y2210D03*
X15753Y2310D03*
G54D11*
X15654Y2110D03*
G54D12*
X15454Y2110D03*
X15853Y2110D03*
G54D10*
X14755Y2210D03*
X15005Y2310D03*
G54D11*
X14905Y2110D03*
G54D12*
X14705Y2110D03*
X15104Y2110D03*
G54D10*
X14004Y2958D03*
X14253Y3058D03*
G54D11*
X14154Y2858D03*
G54D12*
X13954Y2858D03*
X14353Y2858D03*
G54D10*
X16253Y2959D03*
X16502Y3059D03*
G54D11*
X16403Y2859D03*
G54D12*
X16203Y2859D03*
X16602Y2859D03*
G54D10*
X15502Y2959D03*
X15751Y3059D03*
G54D11*
X15652Y2859D03*
G54D12*
X15452Y2859D03*
X15851Y2859D03*
G54D10*
X14753Y2959D03*
X15002Y3059D03*
G54D11*
X14903Y2859D03*
G54D12*
X14703Y2859D03*
X15102Y2859D03*
G54D10*
X16255Y3710D03*
X16505Y3809D03*
G54D11*
X16405Y3610D03*
G54D12*
X16205Y3610D03*
X16604Y3610D03*
G54D10*
X15504Y3710D03*
X15753Y3809D03*
G54D11*
X15654Y3610D03*
G54D12*
X15454Y3610D03*
X15853Y3610D03*
G54D10*
X14755Y3710D03*
X15005Y3809D03*
G54D11*
X14905Y3610D03*
G54D12*
X14705Y3610D03*
X15104Y3610D03*
G54D10*
X14006Y3708D03*
X14256Y3808D03*
G54D11*
X14156Y3608D03*
G54D12*
X13956Y3608D03*
X14355Y3608D03*
G54D10*
X10959Y711D03*
X11209Y810D03*
G54D11*
X11109Y611D03*
G54D12*
X10909Y611D03*
X11309Y611D03*
G54D10*
X9834Y711D03*
X10084Y811D03*
G54D11*
X9984Y611D03*
G54D12*
X9784Y611D03*
X10184Y611D03*
G54D10*
X6651Y710D03*
X6900Y809D03*
G54D11*
X6800Y610D03*
G54D12*
X6600Y610D03*
X7000Y610D03*
G54D10*
X3462Y710D03*
X3711Y809D03*
G54D11*
X3612Y610D03*
G54D12*
X3412Y610D03*
X3811Y610D03*
G54D10*
X2336Y710D03*
X2585Y809D03*
G54D11*
X2486Y610D03*
G54D12*
X2286Y610D03*
X2685Y610D03*
G54D10*
X9275Y1459D03*
X9525Y1559D03*
G54D11*
X9425Y1359D03*
G54D12*
X9225Y1359D03*
X9625Y1359D03*
G54D10*
X11242Y1459D03*
X11492Y1559D03*
G54D11*
X11392Y1359D03*
G54D12*
X11192Y1359D03*
X11591Y1359D03*
G54D10*
X5523Y1459D03*
X5772Y1559D03*
G54D11*
X5672Y1359D03*
G54D12*
X5473Y1359D03*
X5872Y1359D03*
G54D10*
X6275Y1459D03*
X6525Y1559D03*
G54D11*
X6425Y1359D03*
G54D12*
X6225Y1359D03*
X6625Y1359D03*
G54D10*
X3275Y1459D03*
X3525Y1559D03*
G54D11*
X3425Y1359D03*
G54D12*
X3225Y1359D03*
X3625Y1359D03*
G54D10*
X10023Y1459D03*
X10272Y1559D03*
G54D11*
X10173Y1359D03*
G54D12*
X9973Y1359D03*
X10372Y1359D03*
G54D10*
X4775Y1459D03*
X5025Y1559D03*
G54D11*
X4925Y1359D03*
G54D12*
X4725Y1359D03*
X5125Y1359D03*
G54D10*
X7025Y1459D03*
X7275Y1559D03*
G54D11*
X7175Y1359D03*
G54D12*
X6975Y1359D03*
X7375Y1359D03*
G54D10*
X8525Y1459D03*
X8775Y1559D03*
G54D11*
X8675Y1359D03*
G54D12*
X8475Y1359D03*
X8875Y1359D03*
G54D10*
X7775Y1459D03*
X8025Y1559D03*
G54D11*
X7925Y1359D03*
G54D12*
X7725Y1359D03*
X8125Y1359D03*
G54D10*
X4025Y1459D03*
X4275Y1559D03*
G54D11*
X4175Y1359D03*
G54D12*
X3975Y1359D03*
X4375Y1359D03*
G54D10*
X2053Y1460D03*
X2303Y1560D03*
G54D11*
X2203Y1360D03*
G54D12*
X2003Y1360D03*
X2402Y1360D03*
G54D10*
X8902Y2208D03*
X9152Y2308D03*
G54D11*
X9052Y2108D03*
G54D12*
X8852Y2108D03*
X9251Y2108D03*
G54D10*
X10402Y2208D03*
X10652Y2308D03*
G54D11*
X10552Y2108D03*
G54D12*
X10352Y2108D03*
X10751Y2108D03*
G54D10*
X5149Y2208D03*
X5399Y2308D03*
G54D11*
X5299Y2108D03*
G54D12*
X5099Y2108D03*
X5499Y2108D03*
G54D10*
X5902Y2208D03*
X6152Y2308D03*
G54D11*
X6052Y2108D03*
G54D12*
X5852Y2108D03*
X6251Y2108D03*
G54D10*
X2902Y2208D03*
X3152Y2308D03*
G54D11*
X3052Y2108D03*
G54D12*
X2852Y2108D03*
X3251Y2108D03*
G54D10*
X9649Y2208D03*
X9899Y2308D03*
G54D11*
X9799Y2108D03*
G54D12*
X9599Y2108D03*
X9999Y2108D03*
G54D10*
X4402Y2208D03*
X4652Y2308D03*
G54D11*
X4552Y2108D03*
G54D12*
X4352Y2108D03*
X4751Y2108D03*
G54D10*
X6652Y2208D03*
X6902Y2308D03*
G54D11*
X6802Y2108D03*
G54D12*
X6602Y2108D03*
X7001Y2108D03*
G54D10*
X8152Y2208D03*
X8402Y2308D03*
G54D11*
X8302Y2108D03*
G54D12*
X8102Y2108D03*
X8501Y2108D03*
G54D10*
X11432Y2208D03*
X11681Y2308D03*
G54D11*
X11581Y2108D03*
G54D12*
X11381Y2108D03*
X11781Y2108D03*
G54D10*
X7402Y2208D03*
X7652Y2308D03*
G54D11*
X7552Y2108D03*
G54D12*
X7352Y2108D03*
X7751Y2108D03*
G54D10*
X3652Y2208D03*
X3902Y2308D03*
G54D11*
X3802Y2108D03*
G54D12*
X3602Y2108D03*
X4001Y2108D03*
G54D10*
X1871Y2209D03*
X2120Y2309D03*
G54D11*
X2021Y2109D03*
G54D12*
X1821Y2109D03*
X2220Y2109D03*
G54D10*
X8717Y2958D03*
X8966Y3058D03*
G54D11*
X8866Y2858D03*
G54D12*
X8666Y2858D03*
X9066Y2858D03*
G54D10*
X11714Y2958D03*
X11963Y3058D03*
G54D11*
X11864Y2858D03*
G54D12*
X11664Y2858D03*
X12063Y2858D03*
G54D10*
X10217Y2958D03*
X10466Y3058D03*
G54D11*
X10366Y2858D03*
G54D12*
X10166Y2858D03*
X10566Y2858D03*
G54D10*
X4964Y2958D03*
X5213Y3058D03*
G54D11*
X5114Y2858D03*
G54D12*
X4914Y2858D03*
X5313Y2858D03*
G54D10*
X5717Y2958D03*
X5966Y3058D03*
G54D11*
X5866Y2858D03*
G54D12*
X5666Y2858D03*
X6066Y2858D03*
G54D10*
X2717Y2958D03*
X2966Y3058D03*
G54D11*
X2866Y2858D03*
G54D12*
X2666Y2858D03*
X3066Y2858D03*
G54D10*
X9464Y2958D03*
X9713Y3058D03*
G54D11*
X9614Y2858D03*
G54D12*
X9414Y2858D03*
X9813Y2858D03*
G54D10*
X4217Y2958D03*
X4466Y3058D03*
G54D11*
X4366Y2858D03*
G54D12*
X4166Y2858D03*
X4566Y2858D03*
G54D10*
X6467Y2958D03*
X6716Y3058D03*
G54D11*
X6616Y2858D03*
G54D12*
X6416Y2858D03*
X6816Y2858D03*
G54D10*
X7967Y2958D03*
X8216Y3058D03*
G54D11*
X8116Y2858D03*
G54D12*
X7916Y2858D03*
X8316Y2858D03*
G54D10*
X10964Y2958D03*
X11213Y3058D03*
G54D11*
X11114Y2858D03*
G54D12*
X10914Y2858D03*
X11313Y2858D03*
G54D10*
X7217Y2958D03*
X7466Y3058D03*
G54D11*
X7366Y2858D03*
G54D12*
X7166Y2858D03*
X7566Y2858D03*
G54D10*
X3467Y2958D03*
X3716Y3058D03*
G54D11*
X3616Y2858D03*
G54D12*
X3416Y2858D03*
X3816Y2858D03*
G54D10*
X1779Y2957D03*
X2029Y3057D03*
G54D11*
X1929Y2857D03*
G54D12*
X1729Y2857D03*
X2128Y2857D03*
G54D10*
X11528Y3710D03*
X11778Y3809D03*
G54D11*
X11678Y3610D03*
G54D12*
X11478Y3610D03*
X11878Y3610D03*
G54D10*
X10589Y3710D03*
X10839Y3809D03*
G54D11*
X10739Y3610D03*
G54D12*
X10539Y3610D03*
X10939Y3610D03*
G54D10*
X9842Y3710D03*
X10092Y3809D03*
G54D11*
X9992Y3610D03*
G54D12*
X9792Y3610D03*
X10192Y3610D03*
G54D10*
X9089Y3710D03*
X9339Y3809D03*
G54D11*
X9239Y3610D03*
G54D12*
X9039Y3610D03*
X9439Y3610D03*
G54D10*
X8342Y3710D03*
X8592Y3809D03*
G54D11*
X8492Y3610D03*
G54D12*
X8292Y3610D03*
X8691Y3610D03*
G54D10*
X7592Y3710D03*
X7842Y3809D03*
G54D11*
X7742Y3610D03*
G54D12*
X7542Y3610D03*
X7941Y3610D03*
G54D10*
X6842Y3710D03*
X7092Y3809D03*
G54D11*
X6992Y3610D03*
G54D12*
X6792Y3610D03*
X7191Y3610D03*
G54D10*
X6092Y3710D03*
X6342Y3809D03*
G54D11*
X6242Y3610D03*
G54D12*
X6042Y3610D03*
X6441Y3610D03*
G54D10*
X5342Y3710D03*
X5592Y3809D03*
G54D11*
X5492Y3610D03*
G54D12*
X5292Y3610D03*
X5691Y3610D03*
G54D10*
X4589Y3710D03*
X4839Y3809D03*
G54D11*
X4739Y3610D03*
G54D12*
X4539Y3610D03*
X4939Y3610D03*
G54D10*
X3842Y3710D03*
X4092Y3809D03*
G54D11*
X3992Y3610D03*
G54D12*
X3792Y3610D03*
X4191Y3610D03*
G54D10*
X3092Y3710D03*
X3342Y3809D03*
G54D11*
X3242Y3610D03*
G54D12*
X3042Y3610D03*
X3441Y3610D03*
G54D10*
X2342Y3710D03*
X2592Y3809D03*
G54D11*
X2492Y3610D03*
G54D12*
X2292Y3610D03*
X2691Y3610D03*
G54D10*
X1591Y3708D03*
X1840Y3808D03*
G54D11*
X1741Y3608D03*
G54D12*
X1541Y3608D03*
X1940Y3608D03*
G54D13*
X15280Y416D03*
X15280Y714D03*
X16032Y790D03*
X16032Y1088D03*
X14696Y241D03*
X14398Y241D03*
X14529Y1164D03*
X14529Y1462D03*
X15277Y1164D03*
X15277Y1462D03*
X13771Y1162D03*
X13771Y1460D03*
X16032Y1916D03*
X16032Y2214D03*
X14532Y1916D03*
X14532Y2214D03*
X15280Y1916D03*
X15280Y2214D03*
X13775Y1914D03*
X13775Y2212D03*
X16029Y2664D03*
X16029Y2962D03*
X14529Y2664D03*
X14529Y2962D03*
X15277Y2664D03*
X15277Y2962D03*
X13771Y2662D03*
X13771Y2960D03*
X16033Y3411D03*
X16033Y3709D03*
X15281Y3411D03*
X15281Y3709D03*
X14533Y3411D03*
X14533Y3709D03*
X13776Y3409D03*
X13776Y3707D03*
X10733Y411D03*
X10733Y709D03*
X9196Y411D03*
X9196Y709D03*
X4417Y411D03*
X4417Y709D03*
X2878Y411D03*
X2878Y709D03*
X2111Y411D03*
X2111Y709D03*
X5298Y1163D03*
X5298Y1461D03*
X3050Y1041D03*
X3050Y1339D03*
X3802Y1163D03*
X3802Y1461D03*
X7550Y1163D03*
X7550Y1461D03*
X6050Y1163D03*
X6050Y1461D03*
X9050Y1163D03*
X9050Y1461D03*
X10620Y1163D03*
X10620Y1461D03*
X4550Y1163D03*
X4550Y1461D03*
X6802Y1163D03*
X6802Y1461D03*
X8302Y1163D03*
X8302Y1461D03*
X9802Y1163D03*
X9802Y1461D03*
X2928Y1041D03*
X2928Y1339D03*
X4928Y1911D03*
X4928Y2209D03*
X2680Y1911D03*
X2680Y2209D03*
X3432Y1911D03*
X3432Y2209D03*
X7180Y1911D03*
X7180Y2209D03*
X5680Y1911D03*
X5680Y2209D03*
X8680Y1911D03*
X8680Y2209D03*
X11206Y1911D03*
X11206Y2209D03*
X10180Y1911D03*
X10180Y2209D03*
X4180Y1911D03*
X4180Y2209D03*
X6432Y1911D03*
X6432Y2209D03*
X7932Y1911D03*
X7932Y2209D03*
X9432Y1911D03*
X9432Y2209D03*
X1517Y1523D03*
X1517Y1821D03*
X4737Y2660D03*
X4737Y2958D03*
X2489Y2660D03*
X2489Y2958D03*
X3241Y2660D03*
X3241Y2958D03*
X6989Y2660D03*
X6989Y2958D03*
X5489Y2660D03*
X5489Y2958D03*
X8489Y2660D03*
X8489Y2958D03*
X10737Y2660D03*
X10737Y2958D03*
X9989Y2660D03*
X9989Y2958D03*
X3989Y2660D03*
X3989Y2958D03*
X6241Y2660D03*
X6241Y2958D03*
X11491Y2660D03*
X11491Y2958D03*
X7741Y2660D03*
X7741Y2958D03*
X9241Y2660D03*
X9241Y2958D03*
X1559Y2659D03*
X1559Y2957D03*
X11304Y3411D03*
X11304Y3709D03*
X10367Y3411D03*
X10367Y3709D03*
X9618Y3411D03*
X9618Y3709D03*
X8870Y3411D03*
X8870Y3709D03*
X8118Y3411D03*
X8118Y3709D03*
X7370Y3411D03*
X7370Y3709D03*
X6618Y3411D03*
X6618Y3709D03*
X5870Y3411D03*
X5870Y3709D03*
X5118Y3411D03*
X5118Y3709D03*
X4367Y3411D03*
X4367Y3709D03*
X3618Y3411D03*
X3618Y3709D03*
X2870Y3411D03*
X2870Y3709D03*
X2118Y3411D03*
X2118Y3709D03*
X1377Y3411D03*
X1377Y3709D03*
G54D14*
X12651Y2714D03*
X12651Y2614D03*
X12651Y2514D03*
X12651Y2414D03*
X12651Y2314D03*
X12651Y2214D03*
X12651Y2114D03*
X12651Y2014D03*
X12651Y1914D03*
X12651Y1814D03*
X12651Y1714D03*
X12651Y1614D03*
X12651Y1514D03*
X12651Y1414D03*
X13252Y2714D03*
X13252Y2614D03*
X13252Y2514D03*
X13252Y2414D03*
X13252Y2314D03*
X13252Y2214D03*
X13252Y2114D03*
X13252Y2014D03*
X13252Y1914D03*
X13252Y1814D03*
X13252Y1714D03*
X13252Y1614D03*
X13252Y1514D03*
X13252Y1414D03*
X12751Y1414D03*
X12851Y1414D03*
X12951Y1414D03*
X13051Y1414D03*
X13151Y1414D03*
G54D15*
X10717Y1092D03*
X12135Y2984D03*
X12133Y2540D03*
X12281Y1814D03*
X12433Y1236D03*
X12350Y3409D03*
X12517Y1162D03*
X12281Y1911D03*
X12211Y2660D03*
X13363Y3942D03*
X13778Y2471D03*
X13778Y1797D03*
X13778Y1675D03*
X13348Y1320D03*
X12352Y1758D03*
X12281Y1492D03*
X12201Y1403D03*
X12755Y3583D03*
X12850Y3677D03*
X12967Y3583D03*
G54D14*
X13252Y3171D03*
X13252Y3071D03*
X13252Y2971D03*
G54D16*
X13433Y1053D03*
X13433Y1453D03*
G54D15*
X12033Y2286D03*
X2578Y2449D03*
G54D17*
X1638Y2381D03*
X1638Y2282D03*
X1638Y1838D03*
X1638Y1937D03*
X2404Y2381D03*
X2404Y2282D03*
X2405Y1837D03*
X2405Y1935D03*
X2070Y1864D03*
X1971Y1864D03*
G54D18*
X400Y3902D03*
X400Y3875D03*
X400Y538D03*
X400Y511D03*
X17766Y511D03*
X17766Y3875D03*
G54D14*
X4414Y4202D03*
X4414Y4102D03*
X4414Y4002D03*
G54D19*
X386Y2095D03*
G54D20*
X17811Y2095D03*
G54D21*
X3278Y2327D03*
X2722Y3823D03*
X1252Y3597D03*
X1170Y3949D03*
X1252Y1357D03*
X2726Y827D03*
X1170Y453D03*
X5148Y1575D03*
G54D22*
X7022Y2323D03*
X5633Y4146D03*
X6467Y3823D03*
X5344Y3075D03*
X10211Y3823D03*
X9088Y3073D03*
X10767Y2327D03*
X8892Y1575D03*
X11337Y827D03*
X14381Y1571D03*
X17078Y1353D03*
X17115Y453D03*
X17074Y3601D03*
X14381Y3820D03*
G54D18*
X17966Y511D03*
X17969Y3875D03*
X17863Y511D03*
X17866Y3875D03*
X17809Y511D03*
X17812Y3875D03*
X17914Y511D03*
X17917Y3875D03*
G54D23*
X4737Y886D03*
X16130Y514D03*
X15006Y886D03*
X16130Y1447D03*
X1737Y1640D03*
X2670Y1640D03*
X10926Y1640D03*
X11859Y1640D03*
X8859Y886D03*
X4077Y886D03*
X14066Y886D03*
X3143Y886D03*
X9521Y886D03*
X10455Y886D03*
G54D24*
X4737Y286D03*
X16730Y1447D03*
X10923Y1037D03*
X2674Y1037D03*
X16730Y514D03*
X1734Y1037D03*
X11863Y1037D03*
X4077Y286D03*
X15003Y286D03*
X3143Y286D03*
X8859Y286D03*
X14066Y286D03*
X9521Y286D03*
X10455Y286D03*
G54D15*
X5796Y1068D03*
X5048Y1008D03*
X10280Y695D03*
X10358Y764D03*
G54D25*
X15280Y415D03*
X16032Y789D03*
X14697Y241D03*
X14529Y1163D03*
X15277Y1163D03*
X13771Y1161D03*
X16032Y1915D03*
X14532Y1915D03*
X15280Y1915D03*
X13775Y1913D03*
X16029Y2663D03*
X14529Y2663D03*
X15277Y2663D03*
X13771Y2661D03*
X16033Y3410D03*
X15281Y3410D03*
X14533Y3410D03*
X13776Y3408D03*
X10733Y410D03*
X9196Y410D03*
X4417Y410D03*
X2878Y410D03*
X2111Y410D03*
X5298Y1162D03*
X3050Y1040D03*
X3802Y1162D03*
X7550Y1162D03*
X6050Y1162D03*
X9050Y1162D03*
X10620Y1162D03*
X4550Y1162D03*
X6802Y1162D03*
X8302Y1162D03*
X9802Y1162D03*
X2928Y1040D03*
X4928Y1910D03*
X2680Y1910D03*
X3432Y1910D03*
X7180Y1910D03*
X5680Y1910D03*
X8680Y1910D03*
X11206Y1910D03*
X10180Y1910D03*
X4180Y1910D03*
X6432Y1910D03*
X7932Y1910D03*
X9432Y1910D03*
X1517Y1522D03*
X4737Y2659D03*
X2489Y2659D03*
X3241Y2659D03*
X6989Y2659D03*
X5489Y2659D03*
X8489Y2659D03*
X10737Y2659D03*
X9989Y2659D03*
X3989Y2659D03*
X6241Y2659D03*
X11491Y2659D03*
X7741Y2659D03*
X9241Y2659D03*
X1559Y2658D03*
X11304Y3410D03*
X10367Y3410D03*
X9618Y3410D03*
X8870Y3410D03*
X8118Y3410D03*
X7370Y3410D03*
X6618Y3410D03*
X5870Y3410D03*
X5118Y3410D03*
X4367Y3410D03*
X3618Y3410D03*
X2870Y3410D03*
X2118Y3410D03*
X1377Y3410D03*
G54D26*
X1638Y2381D03*
X1638Y1838D03*
X2404Y2381D03*
X2405Y1837D03*
X2070Y1864D03*
G04 End of Mask0*
M02*