; NON-PLATED HOLES START AT T1
; THROUGH (PLATED) HOLES START AT T100
M48
INCH
T1C0.125984
T2C0.196850
T3C0.158908
T4C0.275590
T5C0.118110
T6C0.065278
T7C0.236220
T100C0.042000
T101C0.035000
T102C0.015748
T103C0.036972
T104C0.031497
T105C0.038000
%
T1
X107665Y023270
X170776Y013529
X056331Y041455
X143813Y015714
X102109Y038233
X090875Y030725
X143813Y038195
X064665Y038233
X170739Y036010
X070220Y023233
X088924Y015751
X113368Y008270
X171146Y004529
X053442Y030751
T2
X003998Y005112
X178633Y005112
X178664Y038751
X003998Y005376
X179694Y038751
X178093Y005112
X178124Y038751
X177664Y038751
X179169Y038751
X003998Y039015
X003998Y038751
X179138Y005112
X179663Y005112
X177664Y005112
T3
X022028Y013599
X156560Y006100
X105519Y021079
X064252Y013590
X047367Y006095
X041752Y013590
X149026Y013589
X141537Y013578
X036115Y006095
X077421Y036095
X118636Y028583
X056724Y013590
X149048Y036095
X096136Y028583
X030519Y021079
X088626Y006095
X149026Y028589
X068004Y006095
X101725Y013590
X020206Y021088
X043663Y028583
X164026Y028589
X081163Y028583
X028663Y028583
X060519Y021079
X141537Y028578
X036163Y028583
X094252Y013590
X071752Y013590
X164048Y036095
X039921Y036095
X090519Y021079
X145337Y006089
X019289Y028569
X084921Y036095
X049252Y013590
X038019Y021079
X024856Y006095
X088663Y028583
X017407Y036081
X107393Y036095
X047393Y036095
X099921Y036095
X052991Y021079
X097991Y021079
X111136Y028583
X062421Y036095
X141560Y021089
X075519Y021079
X051136Y028583
X111093Y006106
X068019Y021079
X164048Y009856
X099841Y006110
X045519Y021079
X156515Y028589
X032421Y036095
X115814Y021079
X066163Y028583
X156537Y021100
X156537Y036095
X073663Y028583
X034252Y013590
X149048Y021100
X164048Y021100
X086752Y013590
X058663Y028583
X083019Y021079
X092393Y036095
X156515Y013589
X024921Y036095
X054921Y036095
X079252Y013590
X141560Y036084
X116782Y036095
X113919Y013590
X103664Y028583
X069921Y036095
T4
X178110Y020950
T5
X032776Y023270
X012517Y013566
X011702Y004529
X027220Y038233
X051479Y015751
X011702Y039492
X027257Y008270
X012517Y035973
T6
X154515Y028589
X103718Y013590
X017289Y028569
X034115Y006095
X158531Y021100
X079414Y036095
X158554Y006100
X115913Y013590
X054985Y021079
X015408Y036081
X071914Y036095
X143554Y036084
X098129Y028583
X045393Y036095
X026914Y036095
X083157Y028583
X088519Y021079
X021282Y028569
X062512Y021079
X066004Y006095
X094136Y028583
X077253Y013590
X050991Y021079
X071664Y028583
X022199Y021088
X147048Y036095
X052921Y036095
X086914Y036095
X162048Y036095
X103519Y021079
X147026Y013589
X094386Y036095
X154515Y013589
X120630Y028583
X151020Y028589
X166042Y021100
X049386Y036095
X045657Y028583
X028519Y021079
X158509Y028589
X051246Y013590
X069997Y006095
X154537Y036095
X096246Y013590
X101664Y028583
X081019Y021079
X043746Y013590
X085012Y021079
X032253Y013590
X049136Y028583
X069753Y013590
X139537Y028578
X166042Y009856
X097841Y006110
X107513Y021079
X147331Y006089
X109093Y006106
X045367Y006095
X105658Y028583
X075657Y028583
X056664Y028583
X117808Y021079
X038109Y006095
X054725Y013590
X018206Y021088
X113814Y021079
X075421Y036095
X064414Y036095
X058718Y013590
X109136Y028583
X099985Y021079
X092253Y013590
X049360Y006095
X113130Y028583
X088746Y013590
X143531Y028578
X084753Y013590
X047512Y021079
X166020Y028589
X022856Y006095
X158509Y013589
X081246Y013590
X151042Y036095
X073519Y021079
X047253Y013590
X036019Y021079
X090393Y036095
X030657Y028583
X053129Y028583
X039753Y013590
X040012Y021079
X154537Y021100
X143531Y013578
X086626Y006095
X095991Y021079
X162026Y028589
X066019Y021079
X097921Y036095
X064164Y028583
X166042Y036095
X147026Y028589
X116636Y028583
X068157Y028583
X086664Y028583
X038157Y028583
X060657Y028583
X066246Y013590
X041914Y036095
X067921Y036095
X151020Y013589
X032512Y021079
X139560Y021089
X037921Y036095
X026849Y006095
X139560Y036084
X090620Y006095
X154560Y006100
X043519Y021079
X060421Y036095
X162048Y021100
X026664Y028583
X082921Y036095
X109387Y036095
X079164Y028583
X143337Y006089
X158531Y036095
X034164Y028583
X113087Y006106
X090657Y028583
X020028Y013599
X092512Y021079
X101915Y036095
X147048Y021100
X058519Y021079
X111919Y013590
X041664Y028583
X073746Y013590
X056914Y036095
X036246Y013590
X143554Y021089
X022921Y036095
X062253Y013590
X162048Y009856
X070012Y021079
X030421Y036095
X019401Y036081
X105393Y036095
X024021Y013599
X034414Y036095
X139537Y013578
X077512Y021079
X101835Y006110
X099725Y013590
X114782Y036095
X118776Y036095
X151042Y021100
T7
X003859Y020950
T100
X038018Y014612
X160323Y010880
X073702Y037093
X018311Y014611
X060500Y011632
X152767Y011641
X069889Y029575
X112059Y022094
X141601Y007121
X145332Y034113
X092407Y029575
X051183Y034113
X084889Y026595
X062407Y026595
X110167Y014612
X077407Y029575
X090500Y011632
X145286Y029621
X079317Y022094
X160332Y037093
X160332Y034113
X073702Y034113
X114907Y026595
X047370Y026595
X075500Y014612
X056799Y019114
X041799Y022094
X090500Y014612
X101799Y019114
X096183Y037093
X152804Y022139
X013772Y034112
X058702Y034113
X030500Y014612
X064317Y022094
X045500Y011632
X160286Y029621
X141601Y004141
X034317Y019114
X113035Y037093
X088702Y034113
X062407Y029575
X018311Y011631
X039889Y029575
X114907Y029575
X015277Y015002
X098018Y014612
X081183Y037093
X015589Y026594
X086799Y022094
X137712Y014602
X137748Y022121
X064220Y004113
X066183Y037093
X160323Y022139
X094317Y022094
X015589Y029574
X045500Y014612
X077407Y026595
X103665Y034113
X026799Y019114
X071799Y022094
X036183Y034113
X145286Y014621
X152813Y037093
X137712Y011622
X069889Y026595
X096183Y034113
X021183Y034113
X032331Y004113
X058702Y037093
X086799Y019114
X110167Y011632
X107371Y026595
X064317Y019114
X160286Y026641
X152767Y029621
X084889Y029575
X145286Y026641
X137757Y037074
X083018Y011632
X030500Y011632
X021109Y007093
X137757Y034094
X052981Y011632
X013772Y037092
X047370Y029575
X049280Y019114
X021109Y004113
X054889Y029575
X145286Y011641
X051183Y037093
X101799Y022094
X094317Y019114
X103665Y037093
X043665Y037093
X066183Y034113
X113035Y034113
X137748Y019141
X028702Y034113
X099889Y029575
X039889Y026595
X152804Y007139
X052981Y014612
X112059Y019114
X060500Y014612
X032331Y007093
X152804Y019159
X043665Y034113
X028702Y037093
X152767Y014621
X032407Y026595
X098018Y011632
X096072Y007093
X160323Y007900
X026799Y022094
X107371Y029575
X137712Y029602
X152767Y026641
X160323Y019159
X152813Y034113
X107332Y004113
X137712Y026622
X145323Y019159
X107332Y007093
X041799Y019114
X064220Y007093
X145323Y022139
X152804Y004159
X054889Y026595
X075500Y011632
X024889Y026595
X081183Y034113
X083018Y014612
X015277Y017982
X049280Y022094
X145332Y037093
X068018Y014612
X071799Y019114
X088702Y037093
X024889Y029575
X092407Y026595
X056799Y022094
X038018Y011632
X068018Y011632
X021183Y037093
X032407Y029575
X036183Y037093
X099889Y026595
X079317Y019114
X096072Y004113
X034317Y022094
T101
X134331Y010529
X134331Y014529
T102
X107165Y010918
X127554Y035825
X122110Y026595
X124332Y012362
X121351Y029844
X137776Y024714
X128499Y036770
X122813Y018140
X123524Y017584
X137776Y017973
X122810Y017029
X125165Y011622
X129665Y035825
X133480Y013196
X133629Y039418
X025776Y024492
X122010Y016473
X123499Y034094
X121332Y025399
X120332Y022862
X137776Y016751
X122813Y019114
T103
X082160Y030582
X104020Y022080
X035249Y015589
X083422Y037095
X057722Y015589
X020286Y030568
X098422Y037095
X150045Y038093
X069001Y008093
X048364Y008093
X074660Y030582
X085254Y014591
X085918Y038093
X102722Y015589
X104661Y030582
X150023Y015588
X089623Y008093
X030922Y037095
X031516Y023078
X095249Y015589
X048390Y038093
X091516Y023078
X106516Y023078
X162549Y010856
X070254Y014591
X064665Y029583
X150045Y023099
X053988Y023078
X037112Y008093
X157534Y023099
X165023Y030588
X157512Y030588
X052133Y030582
X117137Y029583
X076516Y023078
X157512Y015588
X049637Y029583
X045894Y037095
X042165Y029583
X084016Y023078
X142557Y023088
X109594Y007106
X021203Y023086
X093390Y038093
X055918Y038093
X040918Y038093
X051493Y022080
X155016Y029589
X100918Y038093
X087749Y015589
X032754Y014591
X023025Y015598
X061516Y023078
X150023Y030588
X116811Y023078
X023357Y007095
X044660Y030582
X018404Y038079
X146334Y008088
X068422Y037095
X059660Y030582
X090894Y037095
X060922Y037095
X046516Y023078
X165045Y038093
X098988Y023078
X065249Y015589
X165045Y023099
X070918Y038093
X147549Y037095
X027165Y029583
X015909Y037081
X100226Y014591
X119633Y030582
X038422Y037095
X157557Y008099
X147527Y029589
X100838Y008108
X050249Y015589
X142534Y030577
X078418Y038093
X087128Y007095
X096493Y022080
X142557Y038082
X155038Y022100
X079665Y029583
X097133Y030582
X066520Y022080
X162527Y029589
X067160Y030582
X063418Y038093
X055226Y014591
X040254Y014591
X155061Y007100
X025918Y038093
X059020Y022080
X114916Y015589
X087165Y029583
X081520Y022080
X053422Y037095
X057165Y029583
X034665Y029583
X044020Y022080
X025853Y008093
X115283Y037095
X098342Y007110
X117779Y038093
X162549Y022100
X165045Y011854
X147549Y022100
X075922Y037095
X033418Y038093
X036520Y022080
X062754Y014591
X080249Y015589
X143838Y007089
X140038Y029578
X162549Y037095
X155038Y037095
X112090Y008104
X108390Y038093
X112133Y030582
X034616Y007095
X114315Y022080
X112420Y014591
X102165Y029583
X155016Y014589
X140038Y014578
X042749Y015589
X147527Y014589
X074020Y022080
X066505Y007095
X140061Y037084
X069016Y023078
X109637Y029583
X105894Y037095
X092754Y014591
X094637Y029583
X089660Y030582
X142534Y015577
X089020Y022080
X018707Y022088
X072165Y029583
X029020Y022080
X039016Y023078
X157534Y038093
X072749Y015589
X140061Y022089
X045868Y007095
X023422Y037095
X077754Y014591
X047754Y014591
X020529Y014599
X037160Y030582
X029660Y030582
X017790Y029570
T104
X016376Y019368
X024050Y019353
X024043Y023807
X016376Y018384
X024043Y022823
X016376Y022823
X020697Y018642
X019713Y018642
X016376Y023807
X024050Y018369
T105
X127507Y014140
X132517Y024140
X130507Y014140
X160406Y040029
X132517Y030714
X132517Y021140
X126513Y026144
X128507Y014140
X044142Y041023
X126513Y018144
X126513Y019144
X132517Y031714
X132517Y015140
X126513Y025144
X132517Y029714
X126513Y021144
X044142Y042023
X126513Y023144
X126513Y022144
X132517Y023140
X132517Y018140
X132517Y019140
X132517Y026140
X126513Y015144
X132517Y016140
X132517Y027140
X126513Y017144
X126513Y024144
X132517Y020140
X132517Y017140
X126513Y014144
X160406Y042029
X131507Y014140
X044142Y040023
X126513Y020144
X126513Y016144
X126513Y027144
X132517Y014140
X129507Y014140
X132517Y022140
X132517Y025140
X160406Y041029
T00
M30
