; NON-PLATED HOLES START AT T1
; THROUGH (PLATED) HOLES START AT T100
M48
INCH
T1C0.158908
T2C0.275590
T3C0.120079
T4C0.118110
T5C0.125984
T6C0.236220
T7C0.065278
T8C0.157480
T9C0.196850
T100C0.031497
T101C0.038000
T102C0.035000
T103C0.015748
T104C0.036972
T105C0.042000
%
T1
X086752Y013590
X149026Y028589
X141560Y021089
X039921Y036095
X099921Y036095
X116782Y036095
X017407Y036081
X071752Y013590
X068004Y006095
X056724Y013590
X077421Y036095
X032421Y036095
X101725Y013590
X028663Y028583
X047393Y036095
X024856Y006095
X084921Y036095
X051136Y028583
X088663Y028583
X141537Y028578
X113919Y013590
X069921Y036095
X062421Y036095
X141560Y036084
X020206Y021088
X156560Y006100
X083019Y021079
X141537Y013578
X041752Y013590
X038019Y021079
X024921Y036095
X036163Y028583
X099841Y006110
X156515Y028589
X073663Y028583
X164048Y036095
X149026Y013589
X105519Y021079
X096136Y028583
X156537Y036095
X097991Y021079
X036115Y006095
X058663Y028583
X094252Y013590
X164026Y028589
X107393Y036095
X081163Y028583
X045519Y021079
X054921Y036095
X060519Y021079
X066163Y028583
X149048Y021100
X052991Y021079
X049252Y013590
X092393Y036095
X164048Y021100
X075519Y021079
X103664Y028583
X156515Y013589
X115814Y021079
X149048Y036095
X030519Y021079
X090519Y021079
X111136Y028583
X043663Y028583
X064252Y013590
X022028Y013599
X079252Y013590
X019289Y028569
X156537Y021100
X034252Y013590
X164048Y009856
X068019Y021079
X111093Y006106
X145337Y006089
X118636Y028583
T2
X178110Y020950
T3
X150056Y008862
X047368Y008862
X109256Y016396
X088591Y008862
X095211Y008862
X140656Y008862
X040767Y008862
X161295Y014473
X161295Y005140
X026699Y016396
X104545Y008862
X031433Y008862
X118590Y016396
X017366Y016396
T4
X027257Y008270
X012517Y035973
X051479Y015751
X011702Y004529
X032776Y023270
X012517Y013566
X027220Y038233
X011702Y039492
T5
X053442Y030751
X171146Y004529
X070220Y023233
X143813Y038195
X143813Y015714
X088924Y015751
X107665Y023270
X056331Y041455
X102109Y038233
X170776Y013529
X064665Y038233
X090875Y030725
X113368Y008270
X170739Y036010
T6
X003859Y020950
T7
X143531Y028578
X047253Y013590
X075421Y036095
X024021Y013599
X143531Y013578
X158509Y028589
X038109Y006095
X097841Y006110
X026664Y028583
X032512Y021079
X109093Y006106
X045657Y028583
X036019Y021079
X034164Y028583
X147026Y028589
X147026Y013589
X077253Y013590
X109136Y028583
X075657Y028583
X037921Y036095
X049136Y028583
X107513Y021079
X158531Y036095
X066019Y021079
X166042Y036095
X154515Y028589
X043746Y013590
X101835Y006110
X054725Y013590
X041914Y036095
X147048Y021100
X158509Y013589
X147331Y006089
X022856Y006095
X151020Y028589
X088746Y013590
X034115Y006095
X113130Y028583
X036246Y013590
X101915Y036095
X116636Y028583
X092253Y013590
X052921Y036095
X082921Y036095
X028519Y021079
X103718Y013590
X050991Y021079
X073746Y013590
X113087Y006106
X105393Y036095
X162026Y028589
X118776Y036095
X088519Y021079
X039753Y013590
X166020Y028589
X062253Y013590
X154537Y021100
X020028Y013599
X103519Y021079
X066246Y013590
X151042Y036095
X081019Y021079
X070012Y021079
X115913Y013590
X022199Y021088
X083157Y028583
X030421Y036095
X079414Y036095
X162048Y036095
X151042Y021100
X099725Y013590
X143554Y036084
X079164Y028583
X158531Y021100
X021282Y028569
X049386Y036095
X139560Y021089
X062512Y021079
X034414Y036095
X018206Y021088
X067921Y036095
X095991Y021079
X090393Y036095
X162048Y009856
X045393Y036095
X069997Y006095
X090657Y028583
X117808Y021079
X026914Y036095
X162048Y021100
X114782Y036095
X047512Y021079
X040012Y021079
X086914Y036095
X139560Y036084
X147048Y036095
X081246Y013590
X019401Y036081
X143554Y021089
X097921Y036095
X154515Y013589
X073519Y021079
X151020Y013589
X041664Y028583
X069753Y013590
X111919Y013590
X017289Y028569
X054985Y021079
X166042Y021100
X056914Y036095
X030657Y028583
X143337Y006089
X060421Y036095
X077512Y021079
X066004Y006095
X158554Y006100
X113814Y021079
X053129Y028583
X032253Y013590
X026849Y006095
X060657Y028583
X064164Y028583
X154560Y006100
X051246Y013590
X085012Y021079
X098129Y028583
X084753Y013590
X166042Y009856
X058519Y021079
X086664Y028583
X154537Y036095
X015408Y036081
X096246Y013590
X139537Y013578
X071664Y028583
X038157Y028583
X101664Y028583
X094136Y028583
X058718Y013590
X109387Y036095
X022921Y036095
X139537Y028578
X068157Y028583
X064414Y036095
X056664Y028583
X092512Y021079
X043519Y021079
X105658Y028583
X099985Y021079
X120630Y028583
X094386Y036095
X071914Y036095
T8
X150034Y002862
X088591Y002862
X017344Y010373
X167295Y014473
X104545Y002862
X047368Y002862
X118634Y010373
X040767Y002862
X026744Y010373
X031433Y002862
X109234Y010373
X167295Y005140
X095211Y002862
X140656Y002862
T9
X178633Y005112
X177664Y005112
X179169Y038751
X178124Y038751
X178664Y038751
X178093Y005112
X003998Y038751
X179138Y005112
X179694Y038751
X179663Y005112
X003998Y039015
X003998Y005376
X177664Y038751
X003998Y005112
T100
X016376Y019368
X024050Y019353
X016376Y018384
X019713Y018642
X024043Y023807
X016376Y022823
X024043Y022823
X016376Y023807
X020697Y018642
X024050Y018369
T101
X126513Y016144
X126513Y021144
X126513Y020144
X126513Y025144
X132517Y020140
X044142Y042023
X132517Y027140
X132517Y019140
X132517Y025140
X126513Y022144
X131507Y014140
X130507Y014140
X126513Y019144
X126513Y014144
X132517Y017140
X132517Y024140
X132517Y014140
X127507Y014140
X132517Y022140
X132517Y018140
X126513Y024144
X132517Y031714
X132517Y026140
X126513Y018144
X126513Y017144
X132517Y029714
X044142Y041023
X044142Y040023
X126513Y026144
X132517Y016140
X132517Y023140
X126513Y027144
X132517Y021140
X132517Y030714
X126513Y023144
X128507Y014140
X126513Y015144
X132517Y015140
X129507Y014140
T102
X134331Y014529
X134331Y010529
T103
X057961Y010677
X122110Y026595
X122813Y018140
X137776Y016751
X122813Y019114
X107165Y010918
X103576Y007640
X133480Y013196
X121332Y025399
X137776Y017973
X129665Y035825
X124332Y012362
X102798Y006951
X123499Y034094
X125165Y011622
X121351Y029844
X123524Y017584
X128499Y036770
X133629Y039418
X122810Y014918
X122010Y014029
X050479Y010084
X137776Y024714
X127554Y035825
X120332Y022862
X025776Y024492
T104
X083422Y037095
X150023Y030588
X100838Y008108
X090894Y037095
X117779Y038093
X096493Y022080
X142534Y030577
X098342Y007110
X044020Y022080
X114315Y022080
X042165Y029583
X089660Y030582
X157534Y023099
X147527Y014589
X165023Y030588
X023025Y015598
X067160Y030582
X162549Y037095
X049637Y029583
X155038Y022100
X018707Y022088
X147549Y022100
X150045Y023099
X066520Y022080
X112420Y014591
X155061Y007100
X045894Y037095
X085254Y014591
X165045Y038093
X095249Y015589
X053988Y023078
X046516Y023078
X032754Y014591
X063418Y038093
X087749Y015589
X140061Y022089
X059660Y030582
X037112Y008093
X069001Y008093
X018404Y038079
X060922Y037095
X091516Y023078
X061516Y023078
X157557Y008099
X034665Y029583
X038422Y037095
X055918Y038093
X025918Y038093
X115283Y037095
X074660Y030582
X162549Y010856
X059020Y022080
X036520Y022080
X065249Y015589
X047754Y014591
X098422Y037095
X057722Y015589
X077754Y014591
X162527Y029589
X040254Y014591
X146334Y008088
X029020Y022080
X023422Y037095
X017790Y029570
X027165Y029583
X084016Y023078
X080249Y015589
X070918Y038093
X102722Y015589
X025853Y008093
X015909Y037081
X039016Y023078
X140038Y014578
X020286Y030568
X069016Y023078
X097133Y030582
X021203Y023086
X157512Y015588
X108390Y038093
X142557Y023088
X076516Y023078
X162549Y022100
X165045Y011854
X062754Y014591
X109637Y029583
X140061Y037084
X150045Y038093
X078418Y038093
X042749Y015589
X044660Y030582
X157512Y030588
X050249Y015589
X068422Y037095
X053422Y037095
X040918Y038093
X094637Y029583
X142534Y015577
X087165Y029583
X114916Y015589
X072165Y029583
X104020Y022080
X165045Y023099
X109594Y007106
X142557Y038082
X074020Y022080
X147527Y029589
X066505Y007095
X105894Y037095
X147549Y037095
X100226Y014591
X035249Y015589
X051493Y022080
X057165Y029583
X098988Y023078
X072749Y015589
X070254Y014591
X055226Y014591
X140038Y029578
X157534Y038093
X033418Y038093
X093390Y038093
X150023Y015588
X116811Y023078
X034616Y007095
X112090Y008104
X104661Y030582
X029660Y030582
X030922Y037095
X081520Y022080
X048390Y038093
X112133Y030582
X089020Y022080
X119633Y030582
X082160Y030582
X064665Y029583
X020529Y014599
X037160Y030582
X143838Y007089
X117137Y029583
X100918Y038093
X079665Y029583
X052133Y030582
X075922Y037095
X155016Y029589
X102165Y029583
X085918Y038093
X023357Y007095
X031516Y023078
X155038Y037095
X106516Y023078
X092754Y014591
X155016Y014589
T105
X083018Y011632
X058702Y034113
X112059Y022094
X062407Y026595
X056799Y022094
X051183Y034113
X092407Y026595
X090500Y011632
X160323Y019159
X152804Y004159
X086799Y022094
X152767Y011641
X062407Y029575
X098018Y014612
X143977Y002409
X145286Y026641
X034317Y022094
X137712Y026622
X043665Y034113
X036183Y034113
X028702Y034113
X160286Y029621
X024889Y026595
X101799Y022094
X145332Y037093
X081183Y037093
X021183Y034113
X152767Y014621
X152767Y026641
X160323Y007900
X038018Y014612
X145323Y019159
X073702Y037093
X032407Y026595
X145332Y034113
X026799Y019114
X088702Y034113
X028776Y004113
X032407Y029575
X084889Y026595
X106195Y014612
X137748Y019141
X047370Y026595
X113035Y037093
X107371Y026595
X137748Y022121
X029283Y013389
X114907Y026595
X099889Y029575
X152813Y037093
X064317Y022094
X052981Y014612
X028702Y037093
X077407Y029575
X145323Y022139
X083018Y014612
X107371Y029575
X152804Y019159
X039889Y026595
X152804Y022139
X034317Y019114
X058702Y037093
X146957Y002409
X107332Y004113
X103665Y034113
X041799Y019114
X049280Y019114
X098018Y011632
X051183Y037093
X145286Y014621
X103665Y037093
X091961Y007093
X137712Y029602
X096183Y037093
X044165Y004113
X073702Y034113
X030500Y010410
X015589Y029574
X060500Y014612
X024889Y029575
X044165Y007093
X107332Y007093
X021183Y037093
X152813Y034113
X145286Y011641
X013772Y034112
X145286Y029621
X075500Y014612
X015166Y015225
X045500Y011632
X066183Y037093
X152767Y029621
X137712Y014602
X038018Y011632
X030500Y013390
X064317Y019114
X071799Y022094
X081183Y034113
X137712Y011622
X015589Y026594
X068018Y011632
X015166Y018205
X068018Y014612
X086799Y019114
X160332Y034113
X113035Y034113
X060500Y011632
X039889Y029575
X112059Y019114
X056799Y019114
X069889Y026595
X052981Y011632
X160332Y037093
X099889Y026595
X090500Y014612
X028776Y007093
X029283Y010409
X106195Y011632
X066183Y034113
X152804Y007139
X094317Y022094
X088702Y037093
X084889Y029575
X013772Y037092
X036183Y037093
X079317Y019114
X160323Y022139
X092407Y029575
X137757Y034094
X054889Y029575
X160286Y026641
X114907Y029575
X041799Y022094
X091961Y004113
X045500Y014612
X160323Y010880
X054889Y026595
X096183Y034113
X021109Y004113
X075500Y011632
X043665Y037093
X049280Y022094
X094317Y019114
X079317Y022094
X137757Y037074
X047370Y029575
X077407Y026595
X069889Y029575
X026799Y022094
X101799Y019114
X021109Y007093
X071799Y019114
T00
M30
